<svg xmlns="http://www.w3.org/2000/svg" width="35.086" height="35.087" viewBox="0 0 35.086 35.087">
  <g id="phone" transform="translate(-7.689 -4)">
    <path id="Path_1" data-name="Path 1" d="M25.217,35.087a9.775,9.775,0,0,1-3.354-.6A35.762,35.762,0,0,1,8.877,26.21,35.76,35.76,0,0,1,.6,13.224a9.7,9.7,0,0,1-.5-4.77A9.952,9.952,0,0,1,5.219,1.169,9.77,9.77,0,0,1,9.9,0a1.1,1.1,0,0,1,1.072.867L12.69,8.9a1.1,1.1,0,0,1-.3,1.005L9.453,12.843A28.861,28.861,0,0,0,22.243,25.634l2.941-2.941a1.1,1.1,0,0,1,1.005-.3l8.031,1.721a1.1,1.1,0,0,1,.867,1.072,9.77,9.77,0,0,1-1.169,4.678,9.952,9.952,0,0,1-7.285,5.115A9.753,9.753,0,0,1,25.217,35.087ZM9.021,2.241a7.683,7.683,0,0,0-6.36,10.234A33.256,33.256,0,0,0,22.612,32.426a7.683,7.683,0,0,0,10.234-6.36l-6.533-1.4-3.071,3.071A1.1,1.1,0,0,1,22,27.954,31.046,31.046,0,0,1,7.133,13.087a1.1,1.1,0,0,1,.217-1.241l3.071-3.071Z" transform="translate(7.689 4)" fill="#fff"/>
  </g>
</svg>
