<svg xmlns="http://www.w3.org/2000/svg" width="13.368" height="18.017" viewBox="0 0 13.368 18.017">
  <path id="Forma_1" data-name="Forma 1" d="M6.14,17.4c-.062-.069-1.531-1.738-3.025-3.849C1.048,10.631,0,8.364,0,6.815A6.758,6.758,0,0,1,6.684,0a6.758,6.758,0,0,1,6.684,6.815c0,1.55-1.048,3.816-3.115,6.737C8.759,15.663,7.289,17.332,7.227,17.4l-.543.615ZM1.463,6.815c0,2.264,3.379,6.758,5.22,8.954,1.841-2.2,5.22-6.691,5.22-8.954a5.278,5.278,0,0,0-5.22-5.323A5.279,5.279,0,0,0,1.463,6.815Zm2.8,0A2.426,2.426,0,1,1,6.684,9.289,2.449,2.449,0,0,1,4.259,6.818Z" fill="#F8669E"/>
</svg>
