<svg width="2105" height="469" viewBox="0 0 2105 469" fill="none" xmlns="http://www.w3.org/2000/svg">
<mask id="mask0_7_328" style="mask-type:alpha" maskUnits="userSpaceOnUse" x="831" y="80" width="300" height="300">
<circle cx="981" cy="230" r="150" fill="white"/>
</mask>
<g mask="url(#mask0_7_328)">
<path d="M1117 292.5H1097C1095.62 292.5 1094.5 293.619 1094.5 295V315C1094.5 316.381 1095.62 317.5 1097 317.5H1117C1118.38 317.5 1119.5 316.381 1119.5 315V295C1119.5 293.619 1118.38 292.5 1117 292.5Z" fill="#0176FF"/>
<path d="M1063.5 89.25H1043.5C1042.12 89.25 1041 90.3693 1041 91.75V111.75C1041 113.131 1042.12 114.25 1043.5 114.25H1063.5C1064.88 114.25 1066 113.131 1066 111.75V91.75C1066 90.3693 1064.88 89.25 1063.5 89.25Z" fill="#0176FF"/>
<path d="M1092.75 117.5H1072.75C1071.37 117.5 1070.25 118.619 1070.25 120V140C1070.25 141.381 1071.37 142.5 1072.75 142.5H1092.75C1094.13 142.5 1095.25 141.381 1095.25 140V120C1095.25 118.619 1094.13 117.5 1092.75 117.5Z" fill="#0176FF"/>
<path d="M1117 175H1097C1095.62 175 1094.5 176.119 1094.5 177.5V197.5C1094.5 198.881 1095.62 200 1097 200H1117C1118.38 200 1119.5 198.881 1119.5 197.5V177.5C1119.5 176.119 1118.38 175 1117 175Z" fill="#0176FF"/>
<path d="M1092 205H1072C1070.62 205 1069.5 206.119 1069.5 207.5V227.5C1069.5 228.881 1070.62 230 1072 230H1092C1093.38 230 1094.5 228.881 1094.5 227.5V207.5C1094.5 206.119 1093.38 205 1092 205Z" fill="#0176FF"/>
<path d="M1092 265H1072C1070.62 265 1069.5 266.119 1069.5 267.5V287.5C1069.5 288.881 1070.62 290 1072 290H1092C1093.38 290 1094.5 288.881 1094.5 287.5V267.5C1094.5 266.119 1093.38 265 1092 265Z" fill="#0176FF"/>
</g>
<path d="M973.75 205H953.75C952.369 205 951.25 206.119 951.25 207.5V227.5C951.25 228.881 952.369 230 953.75 230H973.75C975.131 230 976.25 228.881 976.25 227.5V207.5C976.25 206.119 975.131 205 973.75 205Z" fill="#0176FF"/>
<path d="M973.75 117.5H953.75C952.369 117.5 951.25 118.619 951.25 120V140C951.25 141.381 952.369 142.5 953.75 142.5H973.75C975.131 142.5 976.25 141.381 976.25 140V120C976.25 118.619 975.131 117.5 973.75 117.5Z" fill="#0176FF"/>
<path d="M1002.25 142.5H982.25C980.869 142.5 979.75 143.619 979.75 145V165C979.75 166.381 980.869 167.5 982.25 167.5H1002.25C1003.63 167.5 1004.75 166.381 1004.75 165V145C1004.75 143.619 1003.63 142.5 1002.25 142.5Z" fill="#0176FF"/>
<path d="M1063.5 292.5H1043.5C1042.12 292.5 1041 293.619 1041 295V315C1041 316.381 1042.12 317.5 1043.5 317.5H1063.5C1064.88 317.5 1066 316.381 1066 315V295C1066 293.619 1064.88 292.5 1063.5 292.5Z" fill="#0176FF"/>
<path d="M973.75 292.5H953.75C952.369 292.5 951.25 293.619 951.25 295V315C951.25 316.381 952.369 317.5 953.75 317.5H973.75C975.131 317.5 976.25 316.381 976.25 315V295C976.25 293.619 975.131 292.5 973.75 292.5Z" fill="#0176FF"/>
<path d="M1030.75 320H1010.75C1009.37 320 1008.25 321.119 1008.25 322.5V342.5C1008.25 343.881 1009.37 345 1010.75 345H1030.75C1032.13 345 1033.25 343.881 1033.25 342.5V322.5C1033.25 321.119 1032.13 320 1030.75 320Z" fill="#0176FF"/>
<path d="M1002.25 320H982.25C980.869 320 979.75 321.119 979.75 322.5V342.5C979.75 343.881 980.869 345 982.25 345H1002.25C1003.63 345 1004.75 343.881 1004.75 342.5V322.5C1004.75 321.119 1003.63 320 1002.25 320Z" fill="#0176FF"/>
<path d="M973.75 320H953.75C952.369 320 951.25 321.119 951.25 322.5V342.5C951.25 343.881 952.369 345 953.75 345H973.75C975.131 345 976.25 343.881 976.25 342.5V322.5C976.25 321.119 975.131 320 973.75 320Z" fill="#0176FF"/>
<path d="M945.25 292.5H925.25C923.869 292.5 922.75 293.619 922.75 295V315C922.75 316.381 923.869 317.5 925.25 317.5H945.25C946.631 317.5 947.75 316.381 947.75 315V295C947.75 293.619 946.631 292.5 945.25 292.5Z" fill="#0176FF"/>
<path d="M973.75 265H953.75C952.369 265 951.25 266.119 951.25 267.5V287.5C951.25 288.881 952.369 290 953.75 290H973.75C975.131 290 976.25 288.881 976.25 287.5V267.5C976.25 266.119 975.131 265 973.75 265Z" fill="#0176FF"/>
<path d="M945.25 205H925.25C923.869 205 922.75 206.119 922.75 207.5V227.5C922.75 228.881 923.869 230 925.25 230H945.25C946.631 230 947.75 228.881 947.75 227.5V207.5C947.75 206.119 946.631 205 945.25 205Z" fill="#0176FF"/>
<path d="M1033.5 175H1013.5C1012.12 175 1011 176.119 1011 177.5V197.5C1011 198.881 1012.12 200 1013.5 200H1033.5C1034.88 200 1036 198.881 1036 197.5V177.5C1036 176.119 1034.88 175 1033.5 175Z" fill="#2F9E41"/>
<path d="M1063.5 175H1043.5C1042.12 175 1041 176.119 1041 177.5V197.5C1041 198.881 1042.12 200 1043.5 200H1063.5C1064.88 200 1066 198.881 1066 197.5V177.5C1066 176.119 1064.88 175 1063.5 175Z" fill="#2F9E41"/>
<path d="M1003.5 205H983.5C982.119 205 981 206.119 981 207.5V227.5C981 228.881 982.119 230 983.5 230H1003.5C1004.88 230 1006 228.881 1006 227.5V207.5C1006 206.119 1004.88 205 1003.5 205Z" fill="#2F9E41"/>
<path d="M1033.5 205H1013.5C1012.12 205 1011 206.119 1011 207.5V227.5C1011 228.881 1012.12 230 1013.5 230H1033.5C1034.88 230 1036 228.881 1036 227.5V207.5C1036 206.119 1034.88 205 1033.5 205Z" fill="#2F9E41"/>
<path d="M1003.5 235H983.5C982.119 235 981 236.119 981 237.5V257.5C981 258.881 982.119 260 983.5 260H1003.5C1004.88 260 1006 258.881 1006 257.5V237.5C1006 236.119 1004.88 235 1003.5 235Z" fill="#2F9E41"/>
<path d="M1033.5 235H1013.5C1012.12 235 1011 236.119 1011 237.5V257.5C1011 258.881 1012.12 260 1013.5 260H1033.5C1034.88 260 1036 258.881 1036 257.5V237.5C1036 236.119 1034.88 235 1033.5 235Z" fill="#2F9E41"/>
<path d="M1063.5 235H1043.5C1042.12 235 1041 236.119 1041 237.5V257.5C1041 258.881 1042.12 260 1043.5 260H1063.5C1064.88 260 1066 258.881 1066 257.5V237.5C1066 236.119 1064.88 235 1063.5 235Z" fill="#2F9E41"/>
<path d="M1003.5 265H983.5C982.119 265 981 266.119 981 267.5V287.5C981 288.881 982.119 290 983.5 290H1003.5C1004.88 290 1006 288.881 1006 287.5V267.5C1006 266.119 1004.88 265 1003.5 265Z" fill="#2F9E41"/>
<path d="M1033.5 265H1013.5C1012.12 265 1011 266.119 1011 267.5V287.5C1011 288.881 1012.12 290 1013.5 290H1033.5C1034.88 290 1036 288.881 1036 287.5V267.5C1036 266.119 1034.88 265 1033.5 265Z" fill="#2F9E41"/>
<path d="M993.5 201.25C1001.09 201.25 1007.25 195.094 1007.25 187.5C1007.25 179.906 1001.09 173.75 993.5 173.75C985.906 173.75 979.75 179.906 979.75 187.5C979.75 195.094 985.906 201.25 993.5 201.25Z" fill="#CD191E"/>
<path d="M995.093 80.6635C975.028 78.7699 954.786 80.9395 935.578 87.0426C916.369 93.1458 898.588 103.057 883.295 116.185C868.002 129.314 855.512 145.389 846.571 163.451C837.629 181.514 832.419 201.193 831.252 221.314L859.415 222.948C860.362 206.611 864.593 190.633 871.853 175.967C879.113 161.302 889.254 148.25 901.67 137.591C914.087 126.931 928.524 118.884 944.12 113.929C959.716 108.973 976.151 107.212 992.443 108.749L995.093 80.6635Z" fill="#D80100"/>
<path d="M831.047 226.256C830.544 246.404 834.106 266.447 841.521 285.188C848.937 303.929 860.053 320.984 874.206 335.333C888.359 349.682 905.259 361.032 923.896 368.705C942.533 376.378 962.525 380.216 982.679 379.991L982.363 351.782C966 351.965 949.767 348.849 934.635 342.619C919.503 336.389 905.782 327.174 894.291 315.523C882.799 303.872 873.774 290.025 867.753 274.809C861.732 259.593 858.84 243.319 859.248 226.96L831.047 226.256Z" fill="#0176FF"/>
<path d="M106.26 79.28V380H27.72V79.28H106.26ZM422.251 79.28L326.071 221.66L432.751 380H337.411L300.451 319.94C292.331 306.78 285.191 293.2 279.031 279.2C273.431 291.8 265.871 305.66 256.351 320.78L218.971 380H128.251L235.771 221.66L137.491 79.28H229.891L259.711 128.84C268.671 143.68 276.231 158.1 282.391 172.1C288.551 158.1 295.551 144.8 303.391 132.2L334.891 79.28H422.251Z" fill="#DB0001"/>
<path d="M808.142 262.82C806.182 294.18 795.402 321.2 775.802 343.88C750.882 373 715.322 387.56 669.122 387.56C619.842 387.56 581.622 370.48 554.462 336.32C531.222 307.48 519.602 271.78 519.602 229.22C519.602 185.26 532.902 148.3 559.502 118.34C587.222 87.26 624.602 71.72 671.642 71.72C710.842 71.72 743.462 83.9 769.502 108.26C791.902 129.26 804.082 155.02 806.042 185.54H729.602C726.522 171.82 721.762 161.46 715.322 154.46C704.402 142.42 689.422 136.4 670.382 136.4C646.862 136.4 628.662 145.78 615.782 164.54C604.862 181.06 599.402 202.76 599.402 229.64C599.402 260.72 606.402 284.52 620.402 301.04C632.722 315.6 649.102 322.88 669.542 322.88C690.542 322.88 706.502 315.18 717.422 299.78C723.302 291.38 727.362 279.06 729.602 262.82H808.142ZM1391.3 79.28V146.9H1301.42V380H1223.3V146.9H1133.84V79.28H1391.3ZM1667.42 79.28V143.96H1505.3V193.94H1653.56V255.68H1505.3V315.32H1671.2V380H1426.76V79.28H1667.42ZM1946.08 169.58H1871.32C1870.2 144.94 1854.1 132.62 1823.02 132.62C1795.86 132.62 1782.28 141.44 1782.28 159.08C1782.28 167.2 1785.92 173.08 1793.2 176.72C1799.36 179.8 1819.1 185.54 1852.42 193.94C1884.06 202.06 1907.02 210.6 1921.3 219.56C1945.94 234.68 1958.26 257.36 1958.26 287.6C1958.26 320.64 1945.24 346.12 1919.2 364.04C1896.52 379.72 1866.7 387.56 1829.74 387.56C1784.94 387.56 1750.78 376.78 1727.26 355.22C1706.54 336.46 1695.9 310.98 1695.34 278.78H1774.3C1775.98 310.7 1795.44 326.66 1832.68 326.66C1863.2 326.66 1878.46 316.44 1878.46 296C1878.46 286.48 1874.4 279.48 1866.28 275C1858.44 270.24 1838.7 263.38 1807.06 254.42C1768.7 243.5 1742.94 232.44 1729.78 221.24C1714.38 208.08 1706.68 189.04 1706.68 164.12C1706.68 134.44 1719 111.06 1743.64 93.98C1765.2 79.14 1792.78 71.72 1826.38 71.72C1866.42 71.72 1896.94 81.38 1917.94 100.7C1936.14 117.5 1945.52 140.46 1946.08 169.58ZM2077.47 79.28V380H1998.93V79.28H2077.47Z" fill="#0176FF"/>
</svg>
