<svg width="300" height="300" viewBox="0 0 300 300" fill="none" xmlns="http://www.w3.org/2000/svg">
<mask id="mask0_7_284" style="mask-type:alpha" maskUnits="userSpaceOnUse" x="0" y="0" width="300" height="300">
<circle cx="150" cy="150" r="150" fill="white"/>
</mask>
<g mask="url(#mask0_7_284)">
<path d="M286 212.5H266C264.619 212.5 263.5 213.619 263.5 215V235C263.5 236.381 264.619 237.5 266 237.5H286C287.381 237.5 288.5 236.381 288.5 235V215C288.5 213.619 287.381 212.5 286 212.5Z" fill="#0176FF"/>
<path d="M232.5 9.25H212.5C211.119 9.25 210 10.3693 210 11.75V31.75C210 33.1307 211.119 34.25 212.5 34.25H232.5C233.881 34.25 235 33.1307 235 31.75V11.75C235 10.3693 233.881 9.25 232.5 9.25Z" fill="#0176FF"/>
<path d="M261.75 37.5H241.75C240.369 37.5 239.25 38.6193 239.25 40V60C239.25 61.3807 240.369 62.5 241.75 62.5H261.75C263.131 62.5 264.25 61.3807 264.25 60V40C264.25 38.6193 263.131 37.5 261.75 37.5Z" fill="#0176FF"/>
<path d="M286 95H266C264.619 95 263.5 96.1193 263.5 97.5V117.5C263.5 118.881 264.619 120 266 120H286C287.381 120 288.5 118.881 288.5 117.5V97.5C288.5 96.1193 287.381 95 286 95Z" fill="#0176FF"/>
<path d="M261 125H241C239.619 125 238.5 126.119 238.5 127.5V147.5C238.5 148.881 239.619 150 241 150H261C262.381 150 263.5 148.881 263.5 147.5V127.5C263.5 126.119 262.381 125 261 125Z" fill="#0176FF"/>
<path d="M261 185H241C239.619 185 238.5 186.119 238.5 187.5V207.5C238.5 208.881 239.619 210 241 210H261C262.381 210 263.5 208.881 263.5 207.5V187.5C263.5 186.119 262.381 185 261 185Z" fill="#0176FF"/>
</g>
<path d="M142.75 125H122.75C121.369 125 120.25 126.119 120.25 127.5V147.5C120.25 148.881 121.369 150 122.75 150H142.75C144.131 150 145.25 148.881 145.25 147.5V127.5C145.25 126.119 144.131 125 142.75 125Z" fill="#0176FF"/>
<path d="M142.75 37.5H122.75C121.369 37.5 120.25 38.6193 120.25 40V60C120.25 61.3807 121.369 62.5 122.75 62.5H142.75C144.131 62.5 145.25 61.3807 145.25 60V40C145.25 38.6193 144.131 37.5 142.75 37.5Z" fill="#0176FF"/>
<path d="M171.25 62.5H151.25C149.869 62.5 148.75 63.6193 148.75 65V85C148.75 86.3807 149.869 87.5 151.25 87.5H171.25C172.631 87.5 173.75 86.3807 173.75 85V65C173.75 63.6193 172.631 62.5 171.25 62.5Z" fill="#0176FF"/>
<path d="M232.5 212.5H212.5C211.119 212.5 210 213.619 210 215V235C210 236.381 211.119 237.5 212.5 237.5H232.5C233.881 237.5 235 236.381 235 235V215C235 213.619 233.881 212.5 232.5 212.5Z" fill="#0176FF"/>
<path d="M142.75 212.5H122.75C121.369 212.5 120.25 213.619 120.25 215V235C120.25 236.381 121.369 237.5 122.75 237.5H142.75C144.131 237.5 145.25 236.381 145.25 235V215C145.25 213.619 144.131 212.5 142.75 212.5Z" fill="#0176FF"/>
<path d="M199.75 240H179.75C178.369 240 177.25 241.119 177.25 242.5V262.5C177.25 263.881 178.369 265 179.75 265H199.75C201.131 265 202.25 263.881 202.25 262.5V242.5C202.25 241.119 201.131 240 199.75 240Z" fill="#0176FF"/>
<path d="M171.25 240H151.25C149.869 240 148.75 241.119 148.75 242.5V262.5C148.75 263.881 149.869 265 151.25 265H171.25C172.631 265 173.75 263.881 173.75 262.5V242.5C173.75 241.119 172.631 240 171.25 240Z" fill="#0176FF"/>
<path d="M142.75 240H122.75C121.369 240 120.25 241.119 120.25 242.5V262.5C120.25 263.881 121.369 265 122.75 265H142.75C144.131 265 145.25 263.881 145.25 262.5V242.5C145.25 241.119 144.131 240 142.75 240Z" fill="#0176FF"/>
<path d="M114.25 212.5H94.25C92.8693 212.5 91.75 213.619 91.75 215V235C91.75 236.381 92.8693 237.5 94.25 237.5H114.25C115.631 237.5 116.75 236.381 116.75 235V215C116.75 213.619 115.631 212.5 114.25 212.5Z" fill="#0176FF"/>
<path d="M142.75 185H122.75C121.369 185 120.25 186.119 120.25 187.5V207.5C120.25 208.881 121.369 210 122.75 210H142.75C144.131 210 145.25 208.881 145.25 207.5V187.5C145.25 186.119 144.131 185 142.75 185Z" fill="#0176FF"/>
<path d="M114.25 125H94.25C92.8693 125 91.75 126.119 91.75 127.5V147.5C91.75 148.881 92.8693 150 94.25 150H114.25C115.631 150 116.75 148.881 116.75 147.5V127.5C116.75 126.119 115.631 125 114.25 125Z" fill="#0176FF"/>
<path d="M202.5 95H182.5C181.119 95 180 96.1193 180 97.5V117.5C180 118.881 181.119 120 182.5 120H202.5C203.881 120 205 118.881 205 117.5V97.5C205 96.1193 203.881 95 202.5 95Z" fill="#2F9E41"/>
<path d="M232.5 95H212.5C211.119 95 210 96.1193 210 97.5V117.5C210 118.881 211.119 120 212.5 120H232.5C233.881 120 235 118.881 235 117.5V97.5C235 96.1193 233.881 95 232.5 95Z" fill="#2F9E41"/>
<path d="M172.5 125H152.5C151.119 125 150 126.119 150 127.5V147.5C150 148.881 151.119 150 152.5 150H172.5C173.881 150 175 148.881 175 147.5V127.5C175 126.119 173.881 125 172.5 125Z" fill="#2F9E41"/>
<path d="M202.5 125H182.5C181.119 125 180 126.119 180 127.5V147.5C180 148.881 181.119 150 182.5 150H202.5C203.881 150 205 148.881 205 147.5V127.5C205 126.119 203.881 125 202.5 125Z" fill="#2F9E41"/>
<path d="M172.5 155H152.5C151.119 155 150 156.119 150 157.5V177.5C150 178.881 151.119 180 152.5 180H172.5C173.881 180 175 178.881 175 177.5V157.5C175 156.119 173.881 155 172.5 155Z" fill="#2F9E41"/>
<path d="M202.5 155H182.5C181.119 155 180 156.119 180 157.5V177.5C180 178.881 181.119 180 182.5 180H202.5C203.881 180 205 178.881 205 177.5V157.5C205 156.119 203.881 155 202.5 155Z" fill="#2F9E41"/>
<path d="M232.5 155H212.5C211.119 155 210 156.119 210 157.5V177.5C210 178.881 211.119 180 212.5 180H232.5C233.881 180 235 178.881 235 177.5V157.5C235 156.119 233.881 155 232.5 155Z" fill="#2F9E41"/>
<path d="M172.5 185H152.5C151.119 185 150 186.119 150 187.5V207.5C150 208.881 151.119 210 152.5 210H172.5C173.881 210 175 208.881 175 207.5V187.5C175 186.119 173.881 185 172.5 185Z" fill="#2F9E41"/>
<path d="M202.5 185H182.5C181.119 185 180 186.119 180 187.5V207.5C180 208.881 181.119 210 182.5 210H202.5C203.881 210 205 208.881 205 207.5V187.5C205 186.119 203.881 185 202.5 185Z" fill="#2F9E41"/>
<path d="M162.5 121.25C170.094 121.25 176.25 115.094 176.25 107.5C176.25 99.9061 170.094 93.75 162.5 93.75C154.906 93.75 148.75 99.9061 148.75 107.5C148.75 115.094 154.906 121.25 162.5 121.25Z" fill="#CD191E"/>
<path d="M164.093 0.66352C144.028 -1.2301 123.786 0.939452 104.578 7.0426C85.3693 13.1458 67.5878 23.0573 52.2951 36.1854C37.0025 49.3135 24.5123 65.3889 15.5705 83.4514C6.62872 101.514 1.41874 121.193 0.251684 141.314L28.4149 142.948C29.3624 126.611 33.5926 110.633 40.8527 95.9672C48.1128 81.3017 58.2539 68.2496 70.6705 57.5905C83.0871 46.9314 97.5244 38.8839 113.12 33.9286C128.716 28.9733 145.151 27.2118 161.443 28.7492L164.093 0.66352Z" fill="#D80100"/>
<path d="M0.0467419 146.256C-0.456371 166.404 3.10612 186.447 10.5215 205.188C17.9368 223.929 29.053 240.984 43.206 255.333C57.359 269.682 74.2587 281.032 92.8958 288.705C111.533 296.378 131.525 300.216 151.679 299.991L151.363 271.782C135 271.965 118.767 268.849 103.635 262.619C88.5034 256.389 74.782 247.174 63.2907 235.523C51.7995 223.872 42.774 210.025 36.7532 194.809C30.7325 179.593 27.84 163.319 28.2485 146.96L0.0467419 146.256Z" fill="#0176FF"/>
</svg>
