<?xml version="1.0" standalone="no"?>
<!DOCTYPE svg PUBLIC "-//W3C//DTD SVG 1.1//EN" "http://www.w3.org/Graphics/SVG/1.1/DTD/svg11.dtd" >
<svg xmlns="http://www.w3.org/2000/svg" xmlns:xlink="http://www.w3.org/1999/xlink" version="1.1">
<metadata>
Created by FontForge 20170731 at Fri Apr 17 00:36:53 2020
 By Aleksey,,,
Copyright (c) 2020 by Hendra Pratama. All rights reserved.
</metadata>
<defs>
<font id="BROOKLINE-Condensed" horiz-adv-x="503" >
  <font-face 
    font-family="BROOKLINE"
    font-weight="400"
    font-stretch="condensed"
    units-per-em="1000"
    panose-1="0 0 0 0 0 0 0 0 0 0"
    ascent="750"
    descent="-250"
    x-height="850"
    cap-height="850"
    bbox="-125 -264 1016 1125"
    underline-thickness="50"
    underline-position="-150"
    unicode-range="U+0020-E498"
  />
<missing-glyph horiz-adv-x="295" 
 />
    <glyph glyph-name="o_o" unicode="oo" horiz-adv-x="792" 
d="M565 735h-60l-60 106q31 14 66 14h49q40 0 73 -15t57 -40.5t37 -61t13 -75.5v-476q0 -36 -11 -70t-31.5 -61t-50 -43.5t-66.5 -16.5h-86q-37 0 -66.5 16t-50 42.5t-31.5 61t-11 71.5v476q0 29 -14.5 50.5t-46.5 21.5h-42q-31 0 -46 -20.5t-15 -51.5v-476q0 -26 12 -47.5
t43 -24.5h59l60 -106q-31 -14 -66 -14h-49q-39 0 -72 15t-56.5 41t-37 61t-13.5 75v476q0 36 10 70t30.5 61t50 43.5t68.5 16.5h86q36 0 65.5 -16t50 -42.5t32 -61t11.5 -71.5v-476q0 -29 14.5 -50.5t46.5 -21.5h42q31 0 46 20.5t15 51.5v476q0 13 -2.5 26t-9 23t-17 16.5
t-26.5 6.5z" />
    <glyph glyph-name="O_T" unicode="OT" horiz-adv-x="889" 
d="M535 0v730h-308q-31 -3 -43 -24.5t-12 -47.5v-471q0 -31 15 -51.5t46 -20.5h22q32 0 46.5 21.5t14.5 50.5v484h120v-484q0 -35 -11 -69.5t-32 -61.5t-50.5 -43.5t-65.5 -16.5h-66q-39 0 -68.5 17.5t-49.5 45t-30.5 61.5t-10.5 67v471q0 40 13 75.5t37 61t57 40.5t73 15
h615v-120h-192v-730h-120z" />
    <glyph glyph-name="T_O" unicode="TO" horiz-adv-x="819" 
d="M171 0v730h-161v120h577q40 0 73 -15t57 -40.5t37 -61t13 -75.5v-471q0 -33 -10.5 -67t-30.5 -61.5t-49.5 -45t-68.5 -17.5h-66q-36 0 -65.5 16.5t-50.5 43.5t-32 61.5t-11 69.5v484h120v-484q0 -29 14.5 -50.5t46.5 -21.5h22q31 0 46 20.5t15 51.5v471q0 26 -12 47.5
t-43 24.5h-301v-730h-120z" />
    <glyph glyph-name="O_O" unicode="OO" horiz-adv-x="792" 
d="M227 735q-16 0 -26.5 -6.5t-17 -16.5t-9 -23t-2.5 -26v-476q0 -31 15 -51.5t46 -20.5h42q32 0 46.5 21.5t14.5 50.5v476q0 37 11.5 71.5t32 61t50 42.5t65.5 16h86q39 0 68.5 -16.5t50 -43.5t30.5 -61t10 -70v-476q0 -40 -13.5 -75t-37 -61t-56.5 -41t-72 -15h-49
q-35 0 -66 14l60 106h59q31 3 43 24.5t12 47.5v476q0 31 -15 51.5t-46 20.5h-42q-32 0 -46.5 -21.5t-14.5 -50.5v-476q0 -37 -11 -71.5t-31.5 -61t-50 -42.5t-66.5 -16h-86q-37 0 -66.5 16.5t-50 43.5t-31.5 61t-11 70v476q0 40 13 75.5t37 61t57 40.5t73 15h49q35 0 66 -14
l-60 -106h-60z" />
    <glyph glyph-name="T_U" unicode="TU" horiz-adv-x="833" 
d="M396 166v505h120v-505q0 -20 13.5 -33.5t32.5 -13.5h53q19 0 32.5 13.5t13.5 33.5v684h120v-684q0 -35 -13 -65t-35.5 -53t-53 -36t-64.5 -13h-53q-34 0 -64.5 13t-53 36t-35.5 53t-13 65zM179 0v730h-141v120h479v-120h-218v-730h-120z" />
    <glyph glyph-name="L_I" unicode="LI" horiz-adv-x="451" 
d="M279 218v632h120v-632h-120zM52 0v850h120v-730h227v-120h-347z" />
    <glyph glyph-name=".notdef" horiz-adv-x="295" 
 />
    <glyph glyph-name=".null" horiz-adv-x="0" 
 />
    <glyph glyph-name="nonmarkingreturn" horiz-adv-x="333" 
 />
    <glyph glyph-name="space" unicode=" " horiz-adv-x="197" 
 />
    <glyph glyph-name="exclam" unicode="!" horiz-adv-x="326" 
d="M122 0v110h120v-110h-120zM122 181v669h120v-669h-120z" />
    <glyph glyph-name="quotedbl" unicode="&#x22;" horiz-adv-x="431" 
d="M52 740v241h120v-241h-120zM242 740v241h120v-241h-120z" />
    <glyph glyph-name="numbersign" unicode="#" horiz-adv-x="833" 
d="M820 500h-145l-47 -153h145l-35 -114h-145l-71 -233h-120l71 233h-160l-71 -233h-120l71 233h-144l35 114h144l47 153h-144l35 115h144l72 235h120l-72 -235h160l72 235h120l-72 -235h145zM348 347h160l47 153h-160z" />
    <glyph glyph-name="dollar" unicode="$" horiz-adv-x="467" 
d="M436 272v-24q0 -31 -8.5 -61t-24.5 -55.5t-39 -44t-51 -25.5v-92h-120v88q-35 4 -61 22.5t-44 45t-27 58.5t-9 64v74h120v-74q0 -31 15 -51.5t46 -20.5h22q32 0 46.5 21.5t14.5 50.5v16q-2 33 -31 60t-82 56q-27 15 -54 32t-48.5 40t-35 52.5t-13.5 69.5v27
q0 71 38 122.5t103 65.5v91h120v-94q29 -9 52 -27t38.5 -43t24 -54.5t8.5 -60.5v-68h-120v68q0 29 -13.5 49.5t-42.5 22.5h-33q-31 -3 -43 -24.5t-12 -47.5v-5q0 -25 8 -41.5t21.5 -29t30.5 -22t34 -19.5q28 -17 58 -36t54.5 -44.5t41 -57.5t16.5 -74z" />
    <glyph glyph-name="percent" unicode="%" horiz-adv-x="1046" 
d="M185 0l560 850h140l-560 -850h-140zM211 406q-39 0 -68.5 17.5t-49.5 45t-30.5 61.5t-10.5 67v66q0 40 13 75.5t37 61t57 40.5t73 15h32q40 0 72 -16t54.5 -42.5t34 -61.5t11.5 -72v-66q0 -35 -11 -69.5t-32 -61.5t-50.5 -43.5t-65.5 -16.5h-66zM316 597v66
q0 29 -13.5 49.5t-42.5 22.5h-33q-31 -3 -43 -24.5t-12 -47.5v-66q0 -31 15 -51.5t46 -20.5h22q32 0 46.5 21.5t14.5 50.5zM791 -4q-39 0 -68.5 17.5t-49.5 45t-30.5 61.5t-10.5 67v66q0 40 13 75.5t37 61t57 40.5t73 15h32q40 0 72 -16t54.5 -42.5t34 -61.5t11.5 -72v-66
q0 -35 -11 -69.5t-32 -61.5t-50.5 -43.5t-65.5 -16.5h-66zM896 187v66q0 29 -13.5 49.5t-42.5 22.5h-33q-31 -3 -43 -24.5t-12 -47.5v-66q0 -31 15 -51.5t46 -20.5h22q32 0 46.5 21.5t14.5 50.5z" />
    <glyph glyph-name="ampersand" unicode="&#x26;" horiz-adv-x="589" 
d="M464 0l-26 34q-48 -39 -121 -39h-44q-53 1 -94 18.5t-69 46.5t-43 67.5t-15 82.5v97q0 55 19 97.5t51 71.5q-14 24 -23 52.5t-9 62.5v74q0 32 9 65.5t32 62.5q23 30 58.5 47t80.5 17h23q45 0 80.5 -17t58.5 -47q23 -29 32 -62.5t9 -65.5v-52h-120v52q0 36 -15 54
q-5 7 -15 12.5t-30 5.5h-23q-20 0 -30 -5.5t-15 -12.5q-15 -18 -15 -54v-66q0 -16 2.5 -31t15.5 -38q12 2 24 3.5t24 1.5h134v-120h-105q21 -29 49 -66t63 -85q3 37 3 74l119 1q0 -55 -7 -105.5t-22 -92.5l108 -141h-154zM172 307v-97q0 -39 24.5 -67t81.5 -28h41
q14 1 25.5 5.5t20.5 11.5l-175 241q-8 -12 -13 -28t-5 -38z" />
    <glyph glyph-name="quotesingle" unicode="'" horiz-adv-x="238" 
d="M52 740v241h120v-241h-120z" />
    <glyph glyph-name="parenleft" unicode="(" horiz-adv-x="337" 
d="M52 127v596q0 34 13 64.5t35.5 53.5t52.5 36t65 13h62v-120h-62q-20 0 -33 -13.5t-13 -33.5v-596q0 -20 13 -33.5t33 -13.5h62v-120h-62q-35 0 -65 13t-52.5 36t-35.5 53t-13 65z" />
    <glyph glyph-name="parenright" unicode=")" horiz-adv-x="338" 
d="M280 127q0 -35 -13 -65t-35.5 -53t-53 -36t-64.5 -13h-62v120h62q20 0 33 13.5t13 33.5v596q0 20 -13 33.5t-33 13.5h-62v120h62q34 0 64.5 -13t53 -36t35.5 -53.5t13 -64.5v-596z" />
    <glyph glyph-name="asterisk" unicode="*" horiz-adv-x="398" 
d="M313 599l-68 62l17 -89h-100l15 93l-68 -66l-58 85l104 45l-103 53l57 83l70 -79l-17 105h100l-18 -98l71 71l57 -85l-113 -53l111 -45z" />
    <glyph glyph-name="plus" unicode="+" horiz-adv-x="484" 
d="M182 240v130h-130v120h130v131h120v-131h131v-120h-131v-130h-120z" />
    <glyph glyph-name="comma" unicode="," horiz-adv-x="225" 
d="M32 -80l60 80h-40v110h120v-110l-58 -80h-82z" />
    <glyph glyph-name="hyphen" unicode="-" horiz-adv-x="384" 
d="M52 490h281v-120h-281v120z" />
    <glyph glyph-name="period" unicode="." horiz-adv-x="221" 
d="M52 0v110h120v-110h-120z" />
    <glyph glyph-name="slash" unicode="/" horiz-adv-x="557" 
d="M52 0l390 850h120l-390 -850h-120z" />
    <glyph glyph-name="zero" unicode="0" horiz-adv-x="473" 
d="M211 -4q-39 0 -68.5 17.5t-49.5 45t-30.5 61.5t-10.5 67v476q0 40 13 75.5t37 61t57 40.5t73 15h32q40 0 72 -16t54.5 -42.5t34 -61.5t11.5 -72v-476q0 -35 -11 -69.5t-32 -61.5t-50.5 -43.5t-65.5 -16.5h-66zM316 187v476q0 29 -13.5 49.5t-42.5 22.5h-33
q-31 -3 -43 -24.5t-12 -47.5v-476q0 -31 15 -51.5t46 -20.5h22q32 0 46.5 21.5t14.5 50.5z" />
    <glyph glyph-name="one" unicode="1" horiz-adv-x="355" 
d="M52 850h201v-730h78v-120h-279v120h81v610h-81v120z" />
    <glyph glyph-name="two" unicode="2" horiz-adv-x="475" 
d="M52 222q0 42 16 74t41 57.5t55 44.5t58 36q17 10 34 19.5t30.5 22t21.5 29t8 41.5v117q0 26 -12 47.5t-43 24.5h-33q-29 -2 -42.5 -22.5t-13.5 -49.5v-68h-120v68q0 37 11.5 72t34 61.5t54 42.5t72.5 16h32q40 0 73 -15t57 -40.5t37 -61t13 -75.5v-139q0 -40 -13.5 -69.5
t-35 -52.5t-48.5 -40t-54 -32q-53 -29 -82 -56t-31 -60v-94h261v-120h-381v222z" />
    <glyph glyph-name="three" unicode="3" horiz-adv-x="473" 
d="M153 492h99q18 0 30 9t19.5 23t11 30.5t3.5 31.5v77q0 26 -12 47.5t-43 24.5h-33q-29 -2 -42.5 -22.5t-13.5 -49.5v-68h-120v68q0 37 11.5 72t34 61.5t54 42.5t72.5 16h32q40 0 73 -15t57 -40.5t37 -61t13 -75.5v-99q0 -45 -17.5 -77t-44.5 -56q27 -24 44.5 -56t17.5 -78
v-109q0 -41 -13 -76t-37 -60.5t-57 -40.5t-73 -15h-32q-41 0 -72.5 16t-54 42.5t-34 61t-11.5 72.5v68h120v-68q0 -29 13.5 -49.5t42.5 -22.5h33q31 3 43 24.5t12 47.5v87q0 15 -4 32t-12.5 31.5t-21.5 24t-32 9.5h-93v120z" />
    <glyph glyph-name="four" unicode="4" horiz-adv-x="493" 
d="M333 1v179h-281v120l231 550h170v-849h-120zM333 300v378l-154 -378h154z" />
    <glyph glyph-name="five" unicode="5" horiz-adv-x="472" 
d="M52 402v448h367v-120h-247v-166q26 8 52 8h32q40 0 73 -15t57 -40.5t37 -61t13 -75.5v-192q0 -41 -13 -76t-37 -60.5t-57 -40.5t-73 -15h-32q-41 0 -72.5 16t-54 42.5t-34 61t-11.5 72.5v68h120v-68q0 -29 13.5 -49.5t42.5 -22.5h33q31 3 43 24.5t12 47.5v192
q0 26 -12 47.5t-43 24.5h-33q-29 -2 -42.5 -22.5t-13.5 -49.5h-120v11t1 11h-1z" />
    <glyph glyph-name="six" unicode="6" horiz-adv-x="471" 
d="M52 188v475q0 37 11.5 72t34 61.5t54 42.5t72.5 16h32q40 0 73 -15t57 -40.5t37 -61t13 -75.5v-31h-120v31q0 26 -12 47.5t-43 24.5h-33q-29 -2 -42.5 -22.5t-13.5 -49.5v-99q26 8 52 8h32q40 0 73 -15t57 -40.5t37 -61t13 -75.5v-192q0 -41 -13 -76t-37 -60.5t-57 -40.5
t-73 -15h-32q-41 0 -72.5 16t-54 42.5t-34 61t-11.5 72.5zM316 188v192q0 26 -12 47.5t-43 24.5h-33q-28 -2 -41.5 -21t-14.5 -46v-197q0 -29 13.5 -49.5t42.5 -22.5h33q31 3 43 24.5t12 47.5z" />
    <glyph glyph-name="seven" unicode="7" horiz-adv-x="425" 
d="M33 1l300 849h78v-120l-258 -729h-120zM52 850h319v-120h-319v120z" />
    <glyph glyph-name="eight" unicode="8" horiz-adv-x="471" 
d="M436 299v-114q0 -38 -11.5 -72.5t-34 -61t-54.5 -42.5t-72 -16h-32q-40 0 -73 15t-57 40.5t-37 60.5t-13 76v114q0 34 11 68.5t32 62.5q-21 28 -32 62.5t-11 69.5v104q0 40 13 75.5t37 61t57 40.5t73 15h32q40 0 72 -16t54.5 -42.5t34 -61.5t11.5 -72v-104
q0 -36 -11.5 -70.5t-32.5 -61.5q21 -27 32.5 -61.5t11.5 -69.5zM316 299q0 28 -14 49t-44 23h-31q-28 -2 -41.5 -22.5t-13.5 -49.5v-114q0 -26 12 -47.5t43 -24.5h33q29 2 42.5 22.5t13.5 49.5v114zM316 562v104q0 29 -13.5 49.5t-42.5 22.5h-33q-31 -3 -43 -24.5t-12 -47.5
v-104q0 -29 13.5 -49.5t41.5 -22.5h31q30 1 44 22.5t14 49.5z" />
    <glyph glyph-name="nine" unicode="9" horiz-adv-x="473" 
d="M436 188q0 -38 -11.5 -72.5t-34 -61t-54.5 -42.5t-72 -16h-32q-40 0 -73 15t-57 40.5t-37 60.5t-13 76v31h120v-31q0 -26 12 -47.5t43 -24.5h33q29 2 42.5 22.5t13.5 49.5v99q-26 -8 -52 -8h-32q-40 0 -73 15t-57 40.5t-37 60.5t-13 76v192q0 40 13 75.5t37 61t57 40.5
t73 15h32q40 0 72 -16t54.5 -42.5t34 -61.5t11.5 -72v-475zM172 471q0 -26 12 -47.5t43 -24.5h33q28 2 41.5 21t14.5 46v197q0 29 -13.5 49.5t-42.5 22.5h-33q-31 -3 -43 -24.5t-12 -47.5v-192z" />
    <glyph glyph-name="colon" unicode=":" horiz-adv-x="284" 
d="M122 0h-40v110h120v-110h-80zM82 590v110h120v-110h-120z" />
    <glyph glyph-name="semicolon" unicode=";" horiz-adv-x="285" 
d="M62 -80l60 80h-40v110h120v-110l-58 -80h-82zM82 590v110h120v-110h-120z" />
    <glyph glyph-name="less" unicode="&#x3c;" horiz-adv-x="617" 
d="M52 490l481 300v-140l-369 -230l369 -230v-140l-481 300v140z" />
    <glyph glyph-name="equal" unicode="=" horiz-adv-x="490" 
d="M52 380h381v-120h-381v120zM52 580h381v-120h-381v120z" />
    <glyph glyph-name="greater" unicode="&#x3e;" horiz-adv-x="597" 
d="M533 350l-481 -300v140l369 230l-369 230v140l481 -300v-140z" />
    <glyph glyph-name="question" unicode="?" horiz-adv-x="614" 
d="M172 222q0 42 16 74t41 57.5t55 44.5t58 36q17 10 34 19.5t30.5 22t21.5 29t8 41.5v117q0 26 -12 47.5t-43 24.5h-103q-29 -2 -42.5 -22.5t-13.5 -49.5v-128h-120v128q0 37 11.5 72t34 61.5t54 42.5t72.5 16h102q40 0 73 -15t57 -40.5t37 -61t13 -75.5v-139
q0 -40 -13.5 -69.5t-35 -52.5t-48.5 -40t-54 -32q-53 -29 -82 -56t-31 -60v-27h-120v35zM172 0v110h120v-110h-120z" />
    <glyph glyph-name="at" unicode="@" horiz-adv-x="913" 
d="M52 191v467q0 32 9 65.5t32 62.5q24 30 59.5 47t80.5 17h435q45 0 80 -17t59 -47q22 -29 31.5 -52.5t9.5 -55.5v-293q0 -38 -12 -72.5t-36 -61.5q-23 -26 -55 -41.5t-70 -15.5h-6q-38 2 -69 16.5t-54 40.5q-23 25 -36 60v-117h-79q-40 0 -74 15t-59 42q-24 27 -36 61.5
t-12 72.5v52q0 32 8.5 67.5t28.5 67.5q22 33 57.5 56t85.5 23h188v-266q0 -32 13 -51.5t42 -19.5t42 21t13 50v293q0 18 -4.5 22t-10.5 12q-6 7 -16 12.5t-29 5.5h-435q-20 0 -30 -5.5t-15 -12.5q-7 -8 -11.5 -22t-4.5 -32v-467q0 -29 15 -50t47 -21h505v-120h-505
q-41 0 -74.5 15t-57.5 40.5t-37 60.5t-13 75zM388 506q-9 -14 -13.5 -32t-4.5 -37v-52q0 -19 5 -32.5t12 -21.5q8 -8 18 -12.5t26 -4.5h78q-6 17 -8.5 34.5t-2.5 36.5v146h-68q-26 0 -42 -25z" />
    <glyph glyph-name="A" unicode="A" horiz-adv-x="496" 
d="M355 0l-27 166h-164l-27 -166h-119l136 850h184l136 -850h-119zM183 286h126l-63 410z" />
    <glyph glyph-name="B" unicode="B" horiz-adv-x="480" 
d="M52 0v850h195q46 0 80 -15.5t56.5 -42t33.5 -61.5t11 -73v-98q0 -24 -17 -41l-67 -71q21 -13 35 -30q25 -27 37 -61.5t12 -72.5v-92q0 -41 -13.5 -76t-37.5 -60.5t-57 -40.5t-73 -15h-195zM308 583v75q0 31 -13 51.5t-48 20.5h-75v-290zM247 120q32 0 46.5 21.5
t14.5 50.5v92q0 19 -5 32.5t-13 21.5q-6 6 -14.5 10.5t-20.5 6.5l-83 -86v-149h75z" />
    <glyph glyph-name="C" unicode="C" horiz-adv-x="412" 
d="M52 167v516q0 34 13 64.5t35.5 53.5t52.5 36t65 13h142v-120h-142q-20 0 -33 -13.5t-13 -33.5v-516q0 -20 13 -33.5t33 -13.5h142v-120h-142q-35 0 -65 13t-52.5 36t-35.5 53t-13 65z" />
    <glyph glyph-name="D" unicode="D" horiz-adv-x="480" 
d="M52 0v850h195q45 0 80.5 -17t59.5 -47q23 -29 32 -62.5t9 -65.5v-466q0 -32 -9 -65.5t-32 -62.5q-24 -30 -59.5 -47t-80.5 -17h-195zM247 120q20 0 30 5.5t15 12.5q7 8 11.5 22t4.5 32v466q0 18 -4.5 32t-10.5 22q-6 7 -16 12.5t-30 5.5h-75v-610h75z" />
    <glyph glyph-name="E" unicode="E" horiz-adv-x="412" 
d="M52 167v516q0 34 13 64.5t35.5 53.5t52.5 36t65 13h142v-120h-142q-20 0 -33 -13.5t-13 -33.5v-203h188v-120h-188v-193q0 -20 13 -33.5t33 -13.5h142v-120h-142q-35 0 -65 13t-52.5 36t-35.5 53t-13 65z" />
    <glyph glyph-name="F" unicode="F" horiz-adv-x="412" 
d="M52 0v850h308v-120h-188v-249h188v-120h-188v-361h-120z" />
    <glyph glyph-name="G" unicode="G" horiz-adv-x="488" 
d="M436 451v-451h-159h-66q-39 0 -68.5 18t-50 46t-30.5 62t-10 65v472q0 40 13 75.5t37 61t57 40.5t73 15h32q40 0 72 -16t54.5 -42.5t34 -61.5t11.5 -72v-80h-120v80q0 29 -13.5 49.5t-42.5 22.5h-33q-31 -3 -43 -24.5t-12 -47.5v-472q0 -31 15 -51.5t46 -20.5h22h61v212
h-80v120h200z" />
    <glyph glyph-name="H" unicode="H" horiz-adv-x="494" 
d="M322 0v316h-150v-316h-120v850h120v-414h150v414h120v-850h-120z" />
    <glyph glyph-name="I" unicode="I" horiz-adv-x="224" 
d="M52 0v850h120v-850h-120z" />
    <glyph glyph-name="J" unicode="J" horiz-adv-x="329" 
d="M277 167q0 -40 -13 -71t-35.5 -52.5t-53 -32.5t-64.5 -11h-82v120h82q20 0 33 13.5t13 33.5v683h120v-683z" />
    <glyph glyph-name="K" unicode="K" horiz-adv-x="487" 
d="M354 0l-123 313l-59 -130v-183h-120v850h120v-387l180 387h125l-177 -386l180 -464h-126z" />
    <glyph glyph-name="L" unicode="L" horiz-adv-x="353" 
d="M52 0v850h120v-730h155v-120h-275z" />
    <glyph glyph-name="M" unicode="M" horiz-adv-x="627" 
d="M455 0v452l-111 -452h-60l-112 453v-453h-120v850h140l122 -518l121 518h140v-850h-120z" />
    <glyph glyph-name="N" unicode="N" horiz-adv-x="523" 
d="M351 0l-179 509v-509h-120v850h120l179 -509v509h120v-850h-120z" />
    <glyph glyph-name="O" unicode="O" 
d="M211 -4q-39 0 -68.5 17.5t-49.5 45t-30.5 61.5t-10.5 67v476q0 40 13 75.5t37 61t57 40.5t73 15h47q40 0 72 -16t54.5 -42.5t34 -61.5t11.5 -72v-476q0 -35 -11 -69.5t-32 -61.5t-50.5 -43.5t-65.5 -16.5h-81zM331 187v476q0 29 -13.5 49.5t-42.5 22.5h-48
q-31 -3 -43 -24.5t-12 -47.5v-476q0 -31 15 -51.5t46 -20.5h37q32 0 46.5 21.5t14.5 50.5z" />
    <glyph glyph-name="P" unicode="P" horiz-adv-x="480" 
d="M52 0v850h195q46 0 80 -15.5t56.5 -42t33.5 -61.5t11 -73v-178q0 -24 -17 -41l-239 -230v-209h-120zM308 503v155q0 31 -13 51.5t-48 20.5h-75v-356z" />
    <glyph glyph-name="Q" unicode="Q" horiz-adv-x="488" 
d="M304 -93h-120v93q-33 10 -58 29t-41.5 44t-24.5 54t-8 60v476q0 40 13 75t36.5 60.5t56.5 40.5t74 16h32q41 0 73 -16t54 -42.5t33.5 -61.5t11.5 -72v-476q0 -66 -34.5 -117.5t-97.5 -69.5v-93zM316 187v476q0 29 -13.5 49.5t-42.5 22.5h-33q-31 -3 -43 -24.5t-12 -47.5
v-476q0 -31 15 -51.5t46 -20.5h22q32 0 46.5 21.5t14.5 50.5z" />
    <glyph glyph-name="R" unicode="R" horiz-adv-x="480" 
d="M52 0v850h195q46 0 80 -15.5t56.5 -42t33.5 -61.5t11 -73v-178q0 -24 -17 -41l-54 -52l103 -387h-120l-82 292l-86 -83v-209h-120zM308 503v155q0 31 -13 51.5t-48 20.5h-75v-356z" />
    <glyph glyph-name="S" unicode="S" horiz-adv-x="488" 
d="M316 298l-240 183q-24 18 -24 48v134q0 40 13 75.5t37 61t57 40.5t73 15h32q41 0 73 -16t54 -42.5t33.5 -61.5t11.5 -72v-80h-120v80q0 29 -13.5 49.5t-42.5 22.5h-33q-16 0 -26.5 -6.5t-17 -16.5t-9 -23t-2.5 -26v-104l240 -183q24 -19 24 -48v-141q0 -35 -11 -69
t-32 -60.5t-50.5 -43.5t-65.5 -18h-66q-39 0 -68.5 17.5t-50 45t-30.5 61.5t-10 67v80h120v-80q0 -31 15 -51.5t46 -20.5h22q32 0 46.5 21.5t14.5 50.5v111z" />
    <glyph glyph-name="T" unicode="T" horiz-adv-x="479" 
d="M179 0v730h-141v120h403v-120h-142v-730h-120z" />
    <glyph glyph-name="U" unicode="U" 
d="M172 850v-663q0 -31 15 -51.5t46 -20.5h37q32 0 46.5 21.5t14.5 50.5v663h120v-663q0 -37 -11.5 -71.5t-32 -61t-50 -42.5t-65.5 -16h-81q-38 0 -67.5 16.5t-50 43.5t-31 61t-10.5 70v663h120z" />
    <glyph glyph-name="V" unicode="V" horiz-adv-x="500" 
d="M139 850l109 -677l109 677h119l-136 -850h-184l-136 850h119z" />
    <glyph glyph-name="W" unicode="W" horiz-adv-x="661" 
d="M243 0h-145l-77 850h116l56 -599l98 599h79l98 -599l56 599h116l-77 -850h-145l-88 428z" />
    <glyph glyph-name="X" unicode="X" horiz-adv-x="475" 
d="M338 850h122l-136 -424l136 -426h-119l-106 314l-106 -314h-119l136 426l-136 424h122l103 -323z" />
    <glyph glyph-name="Y" unicode="Y" horiz-adv-x="510" 
d="M313 270v-270h-120v270l-179 580h120l119 -386l119 386h120z" />
    <glyph glyph-name="Z" unicode="Z" horiz-adv-x="454" 
d="M402 0h-350v150l234 580h-234v120h350v-150l-234 -580h234v-120z" />
    <glyph glyph-name="bracketleft" unicode="[" horiz-adv-x="343" 
d="M52 930h228v-120h-108v-770h108v-120h-228v1010z" />
    <glyph glyph-name="backslash" unicode="\" horiz-adv-x="472" 
d="M359 0l-360 850h120l360 -850h-120z" />
    <glyph glyph-name="bracketright" unicode="]" horiz-adv-x="310" 
d="M280 -80h-228v120h108v770h-108v120h228v-1010z" />
    <glyph glyph-name="asciicircum" unicode="^" horiz-adv-x="689" 
d="M653 410l-301 289l-300 -289v170l300 289v1v-1l1 1v-1l300 -289v-170z" />
    <glyph glyph-name="underscore" unicode="_" horiz-adv-x="716" 
d="M52 -120h631v-120h-631v120z" />
    <glyph glyph-name="grave" unicode="`" horiz-adv-x="378" 
d="M198 1071l141 -140h-99l-192 140h150z" />
    <glyph glyph-name="a" unicode="a" horiz-adv-x="498" 
d="M355 0l-27 166h-164l-27 -166h-119l136 850h184l136 -850h-119zM183 286h126l-63 410z" />
    <glyph glyph-name="b" unicode="b" horiz-adv-x="478" 
d="M247 850q42 0 75.5 -15.5t57 -42t36 -61.5t12.5 -73v-100q0 -38 -12 -72t-35 -60q23 -26 35 -60t12 -72v-102q0 -38 -12.5 -73t-36 -61.5t-57 -42t-75.5 -15.5h-195v850h195zM308 658q0 31 -14.5 51.5t-46.5 20.5h-75v-244h75q32 0 46.5 20.5t14.5 51.5v100zM172 366
v-246h75q32 0 46.5 20.5t14.5 51.5v102q0 31 -14.5 51.5t-46.5 20.5h-75z" />
    <glyph glyph-name="c" unicode="c" horiz-adv-x="490" 
d="M436 278v-91q0 -35 -11 -69.5t-31.5 -61.5t-50 -43.5t-66.5 -16.5h-66q-39 0 -68.5 17.5t-49.5 45t-30.5 61.5t-10.5 67v476q0 40 13 75.5t37 61t57 40.5t73 15h32q40 0 72 -16t54 -42.5t34 -61.5t12 -72v-82h-120v82q0 29 -13.5 49.5t-42.5 22.5h-33q-15 0 -25.5 -6.5
t-17 -16.5t-9.5 -23t-3 -26v-476q0 -31 15 -51.5t46 -20.5h22q32 0 46.5 21.5t14.5 50.5v91h120z" />
    <glyph glyph-name="d" unicode="d" horiz-adv-x="478" 
d="M52 0v850h195q42 0 75.5 -15.5t57 -42t36 -61.5t12.5 -73v-466q0 -41 -13.5 -76t-37.5 -60.5t-57 -40.5t-73 -15h-195zM247 120q32 0 46.5 21.5t14.5 50.5v466q0 31 -14.5 51.5t-46.5 20.5h-75v-610h75z" />
    <glyph glyph-name="e" unicode="e" horiz-adv-x="412" 
d="M52 0v850h308v-120h-188v-249h188v-120h-188v-241h188v-120h-308z" />
    <glyph glyph-name="f" unicode="f" horiz-adv-x="412" 
d="M52 0v850h308v-120h-188v-249h188v-120h-188v-361h-120z" />
    <glyph glyph-name="g" unicode="g" horiz-adv-x="486" 
d="M436 455v-268q0 -34 -11 -68t-32 -61.5t-50.5 -44.5t-65.5 -17h-66q-39 0 -68.5 18t-50 46t-30.5 62t-10 65v476q0 40 13 75.5t37 61t57 40.5t73 15h32q40 0 72 -16t54.5 -42.5t34 -61.5t11.5 -72v-80h-120v80q0 29 -13.5 49.5t-42.5 22.5h-33q-31 -3 -43 -24.5
t-12 -47.5v-476q0 -31 15 -51.5t46 -20.5h22q32 0 46.5 21.5t14.5 50.5v148h-80v120h200z" />
    <glyph glyph-name="h" unicode="h" horiz-adv-x="494" 
d="M322 0v316h-150v-316h-120v850h120v-414h150v414h120v-850h-120z" />
    <glyph glyph-name="i" unicode="i" horiz-adv-x="224" 
d="M52 0v850h120v-850h-120z" />
    <glyph glyph-name="j" unicode="j" horiz-adv-x="329" 
d="M277 167q0 -40 -13 -71t-35.5 -52.5t-53 -32.5t-64.5 -11h-82v120h82q20 0 33 13.5t13 33.5v683h120v-683z" />
    <glyph glyph-name="k" unicode="k" horiz-adv-x="498" 
d="M354 0l-123 313l-59 -130v-183h-120v850h120v-387l180 387h125l-177 -386l180 -464h-126z" />
    <glyph glyph-name="l" unicode="l" horiz-adv-x="353" 
d="M52 0v850h120v-730h155v-120h-275z" />
    <glyph glyph-name="m" unicode="m" horiz-adv-x="627" 
d="M455 0v452l-111 -452h-60l-112 453v-453h-120v850h140l122 -518l121 518h140v-850h-120z" />
    <glyph glyph-name="n" unicode="n" horiz-adv-x="523" 
d="M351 0l-179 509v-509h-120v850h120l179 -509v509h120v-850h-120z" />
    <glyph glyph-name="o" unicode="o" 
d="M211 -4q-39 0 -68.5 17.5t-49.5 45t-30.5 61.5t-10.5 67v476q0 40 13 75.5t37 61t57 40.5t73 15h47q40 0 72 -16t54.5 -42.5t34 -61.5t11.5 -72v-476q0 -35 -11 -69.5t-32 -61.5t-50.5 -43.5t-65.5 -16.5h-81zM331 187v476q0 29 -13.5 49.5t-42.5 22.5h-48
q-31 -3 -43 -24.5t-12 -47.5v-476q0 -31 15 -51.5t46 -20.5h37q32 0 46.5 21.5t14.5 50.5z" />
    <glyph glyph-name="p" unicode="p" horiz-adv-x="480" 
d="M52 0v850h195q42 0 75.5 -15.5t57 -42t36 -61.5t12.5 -73v-176q0 -38 -12.5 -73t-36 -61.5t-57 -42t-75.5 -15.5h-75v-290h-120zM308 482v176q0 31 -14.5 51.5t-46.5 20.5h-75v-320h75q32 0 46.5 20.5t14.5 51.5z" />
    <glyph glyph-name="q" unicode="q" horiz-adv-x="488" 
d="M304 -93h-120v93q-33 10 -58 29t-41.5 44t-24.5 54t-8 60v476q0 40 13 75.5t37 61t57 40.5t73 15h32q40 0 72 -16t54.5 -42.5t34 -61.5t11.5 -72v-476q0 -66 -34.5 -117.5t-97.5 -69.5v-93zM316 187v476q0 29 -13.5 49.5t-42.5 22.5h-33q-31 -3 -43 -24.5t-12 -47.5v-476
q0 -31 15 -51.5t46 -20.5h22q32 0 46.5 21.5t14.5 50.5z" />
    <glyph glyph-name="r" unicode="r" horiz-adv-x="480" 
d="M330 0l-76 290h-7h-75v-290h-120v850h195q42 0 75.5 -15.5t57 -42t36 -61.5t12.5 -73v-176q0 -45 -17 -84t-48 -66l87 -332h-120zM308 482v176q0 31 -14.5 51.5t-46.5 20.5h-75v-320h75q32 0 46.5 20.5t14.5 51.5z" />
    <glyph glyph-name="s" unicode="s" horiz-adv-x="488" 
d="M436 270v-83q0 -35 -11 -69.5t-32 -61.5t-50.5 -43.5t-65.5 -16.5h-66q-39 0 -68.5 17.5t-49.5 45t-30.5 61.5t-10.5 67v74h120v-74q0 -31 15 -51.5t46 -20.5h22q32 0 46.5 21.5t14.5 50.5v75q-2 33 -31 60t-82 56q-27 15 -54 32t-48.5 40t-35 52.5t-13.5 69.5v91
q0 40 13 75.5t37 61t57 40.5t73 15h32q40 0 72 -16t54.5 -42.5t34 -61.5t11.5 -72v-80h-120v80q0 29 -13.5 49.5t-42.5 22.5h-33q-31 -3 -43 -24.5t-12 -47.5v-69q0 -25 8 -41.5t21.5 -29t30.5 -22t34 -19.5q28 -17 58 -36t54.5 -44.5t41 -57.5t16.5 -74z" />
    <glyph glyph-name="t" unicode="t" horiz-adv-x="479" 
d="M179 0v730h-141v120h403v-120h-142v-730h-120z" />
    <glyph glyph-name="u" unicode="u" 
d="M172 850v-663q0 -31 15 -51.5t46 -20.5h37q32 0 46.5 21.5t14.5 50.5v663h120v-663q0 -37 -11.5 -71.5t-32 -61t-50 -42.5t-65.5 -16h-81q-38 0 -67.5 16.5t-50 43.5t-31 61t-10.5 70v663h120z" />
    <glyph glyph-name="v" unicode="v" horiz-adv-x="501" 
d="M139 850l109 -677l109 677h119l-136 -850h-184l-136 850h119z" />
    <glyph glyph-name="w" unicode="w" horiz-adv-x="664" 
d="M243 0h-145l-77 850h116l56 -599l98 599h79l98 -599l56 599h116l-77 -850h-145l-88 428z" />
    <glyph glyph-name="x" unicode="x" horiz-adv-x="479" 
d="M338 850h122l-136 -424l136 -426h-119l-106 314l-106 -314h-119l136 426l-136 424h122l103 -323z" />
    <glyph glyph-name="y" unicode="y" horiz-adv-x="504" 
d="M313 270v-270h-120v270l-179 580h120l119 -386l119 386h120z" />
    <glyph glyph-name="z" unicode="z" horiz-adv-x="454" 
d="M402 0h-350v150l234 580h-234v120h350v-150l-234 -580h234v-120z" />
    <glyph glyph-name="braceleft" unicode="{" horiz-adv-x="353" 
d="M212 743v-226q0 -26 -11.5 -49.5t-27.5 -42.5q16 -20 27.5 -43t11.5 -49v-226q0 -20 13 -33.5t33 -13.5h62v-120h-62q-35 0 -65 13t-52.5 36t-35.5 53t-13 65v211q0 18 -12 31.5t-30 15.5h-4h-12v120h12q20 0 33 13.5t13 33.5v211q0 34 13 64.5t35.5 53.5t52.5 36t65 13
h62v-120h-62q-20 0 -33 -13.5t-13 -33.5z" />
    <glyph glyph-name="bar" unicode="|" horiz-adv-x="390" 
d="M134 -180v1250h120v-1250h-120z" />
    <glyph glyph-name="braceright" unicode="}" horiz-adv-x="379" 
d="M160 743q0 20 -13 33.5t-33 13.5h-62v120h62q34 0 64.5 -13t53 -36t35.5 -53.5t13 -64.5v-211q0 -20 13 -33.5t33 -13.5h12v-120h-12h-4q-18 -2 -30 -15.5t-12 -31.5v-211q0 -35 -13 -65t-35.5 -53t-53 -36t-64.5 -13h-62v120h62q20 0 33 13.5t13 33.5v226q0 26 11.5 49
t27.5 43q-16 19 -27.5 42.5t-11.5 49.5v226z" />
    <glyph glyph-name="asciitilde" unicode="~" horiz-adv-x="612" 
d="M231 401q-47 19 -71.5 2.5t-24.5 -58.5h-95q0 45 13 80.5t45 59.5q32 23 74 25t87 -16l110 -45q43 -17 73 -10t30 45h95q5 -48 -13.5 -81.5t-50.5 -51t-73.5 -18t-81.5 17.5z" />
    <glyph glyph-name="exclamdown" unicode="&#xa1;" horiz-adv-x="333" 
d="M242 650v-110h-120v110h120zM242 469v-669h-120v669h120z" />
    <glyph glyph-name="cent" unicode="&#xa2;" horiz-adv-x="543" 
d="M486 338v-41q0 -35 -10.5 -68.5t-30.5 -60.5t-48.5 -44t-64.5 -18v-106h-120v106h-1q-39 0 -68.5 17.5t-49.5 45t-30.5 61.5t-10.5 67v256q0 38 11.5 71t32.5 58.5t50.5 41.5t65.5 20v106h120v-106q36 -4 64.5 -21t48.5 -43t30.5 -59t10.5 -68v-43h-120v43
q0 29 -13.5 49.5t-42.5 22.5h-83q-15 0 -25.5 -6.5t-17 -16.5t-9.5 -23t-3 -26v-256q0 -31 15 -51.5t46 -20.5h72q32 0 46.5 21.5t14.5 50.5v41h120z" />
    <glyph glyph-name="sterling" unicode="&#xa3;" horiz-adv-x="588" 
d="M-3 63q13 35 37.5 61.5t60.5 37.5q10 9 16 24.5t6 38.5v107h-64v120h64v206q0 40 13 75.5t37 61t57 40.5t73 15h12q40 0 72 -16t54 -42.5t34 -61.5t12 -72v-23h-120v23q0 29 -13.5 49.5t-42.5 22.5h-13q-15 0 -25.5 -6.5t-17 -16.5t-9.5 -23t-3 -26v-206h151v-120h-151
v-87q0 -43 -16 -86l18 -6l124 -51q28 -12 50.5 -16.5t37.5 -1t22.5 17.5t6.5 40h107q6 -54 -13 -91.5t-54 -57.5t-81 -21.5t-95 15.5l-139 56q-40 17 -68.5 7.5t-36.5 -42.5z" />
    <glyph glyph-name="yen" unicode="&#xa5;" horiz-adv-x="494" 
d="M186 0v161h-134v120h122l-11 40h-111v120h75l-124 409h120l111 -355l11 -40l11 40l111 355h120l-124 -409h70v-120h-106l-10 -40h116v-120h-127v-161h-120z" />
    <glyph glyph-name="section" unicode="&#xa7;" horiz-adv-x="508" 
d="M456 330v-83q0 -48 -20.5 -93.5t-57.5 -71.5q25 -25 41 -57.5t17 -74.5v-23q0 -35 -11 -69.5t-32 -61.5t-50.5 -43.5t-65.5 -16.5h-86q-39 0 -68.5 17.5t-49.5 45t-30.5 61.5t-10.5 67v33h120v-33q0 -31 15 -51.5t46 -20.5h42q32 0 46.5 21.5t14.5 50.5v15q-2 33 -31 60
t-82 56q-27 15 -54 32t-48.5 40t-35 52.5t-13.5 69.5v91q0 51 20 92t56 67q-25 24 -40.5 55t-15.5 75v31q0 40 13 75.5t37 61t57 40.5t73 15h32q40 0 72 -16t54.5 -42.5t34 -61.5t11.5 -72v-40h-120v40q0 29 -13.5 49.5t-42.5 22.5h-33q-31 -3 -43 -24.5t-12 -47.5v-9
q0 -25 8 -41.5t21.5 -29t30.5 -22t34 -19.5q28 -17 58 -36t54.5 -44.5t41 -57.5t16.5 -74zM172 343v-69q0 -41 21 -62t50 -37h32q32 0 46.5 21.5t14.5 50.5v75q-2 26 -20.5 48t-53.5 45h-35q-31 -3 -43 -24.5t-12 -47.5z" />
    <glyph glyph-name="dieresis" unicode="&#xa8;" horiz-adv-x="455" 
d="M192 967q0 -26 -16.5 -47.5t-42.5 -21.5h-24q-27 0 -42 22.5t-15 46.5t15 46.5t42 22.5h24q26 0 42.5 -21.5t16.5 -47.5zM422 967q0 -26 -16.5 -47.5t-42.5 -21.5h-24q-27 0 -42 22.5t-15 46.5t15 46.5t42 22.5h24q26 0 42.5 -21.5t16.5 -47.5z" />
    <glyph glyph-name="copyright" unicode="&#xa9;" horiz-adv-x="519" 
d="M146 279q-24 23 -35.5 52t-11.5 60t11.5 60.5t35.5 53.5q50 47 114 47t114 -47q23 -24 35 -53.5t12 -60.5t-12 -60t-35 -52q-24 -24 -53.5 -36.5t-60.5 -12.5t-60.5 12.5t-53.5 36.5zM210 318q-24 19 -24 53v34q0 33 21 56q11 11 25.5 16t30.5 5t30.5 -5.5t25.5 -18.5
l-29 -29q-3 5 -11.5 8.5t-15.5 3.5q-13 0 -24.5 -8t-11.5 -24v-42q0 -9 10 -18.5t21 -9.5q12 0 22.5 5.5t12.5 10.5l29 -26q-11 -15 -27.5 -22t-36.5 -7q-12 0 -24.5 4.5t-23.5 13.5zM260 266q24 0 46.5 10t39.5 27.5t27 40t10 47.5q0 24 -9.5 47t-26.5 40t-39.5 27.5
t-47.5 10.5t-47.5 -10t-39 -27t-26.5 -40t-10 -48q0 -24 9.5 -47t26.5 -40t39 -27.5t48 -10.5z" />
    <glyph glyph-name="guillemotleft" unicode="&#xab;" horiz-adv-x="759" 
d="M52 490l381 340v-170l-269 -240l269 -240v-170l-381 340v140zM332 490l381 340v-170l-269 -240l269 -240v-170l-381 340v140z" />
    <glyph glyph-name="registered" unicode="&#xae;" horiz-adv-x="530" 
d="M266 232q-34 0 -63.5 13t-51 34.5t-34 51t-12.5 62.5q0 32 12.5 61t34 51.5t51 35.5t63.5 13q32 0 61 -12.5t51.5 -34.5t35.5 -51t13 -63q0 -33 -12.5 -62.5t-34 -51t-51 -34.5t-63.5 -13zM266 268q24 0 46.5 10t39.5 27.5t27 40t10 47.5q0 24 -9.5 47t-26.5 40
t-39.5 27.5t-47.5 10.5t-47.5 -10t-39 -27t-26.5 -40t-10 -48q0 -24 9.5 -47t26.5 -40t39 -27.5t48 -10.5zM295 308l-24 44h-25v-44h-39v178h56q38 0 54.5 -19t16.5 -51q0 -19 -8 -31.5t-19 -20.5l32 -56h-44zM293 419q0 11 -6 19t-16 8h-25v-55h19q16 0 22 8.5t6 19.5z" />
    <glyph glyph-name="acute" unicode="&#xb4;" horiz-adv-x="354" 
d="M339 1071l-192 -140h-99l141 140h150z" />
    <glyph glyph-name="cedilla" unicode="&#xb8;" horiz-adv-x="283" 
d="M52 -97v114h69v-47q54 0 80.5 -28.5t26.5 -67.5v-6q0 -24 -10 -43t-26.5 -32.5t-38 -20.5t-43.5 -7h-74v69h74q20 0 36.5 8t16.5 26v2q0 14 -12 23.5t-32 9.5h-67z" />
    <glyph glyph-name="guillemotright" unicode="&#xbb;" horiz-adv-x="767" 
d="M713 350l-381 -340v170l269 240l-269 240v170l381 -340v-140zM433 350l-381 -340v170l269 240l-269 240v170l381 -340v-140z" />
    <glyph glyph-name="questiondown" unicode="&#xbf;" horiz-adv-x="624" 
d="M486 483q0 -42 -16.5 -74t-41 -57.5t-54.5 -45t-58 -35.5q-17 -10 -34 -19.5t-30.5 -22t-21.5 -29t-8 -41.5v-117q0 -26 12 -47.5t43 -24.5h103q29 2 42.5 22.5t13.5 49.5v128h120v-128q0 -38 -11.5 -72.5t-34 -61t-54.5 -42.5t-72 -16h-102q-40 0 -73 15t-57 40.5
t-37 60.5t-13 76v139q0 40 13.5 69.5t35 52.5t48.5 40t54 32q53 29 82 56t31 60v27h120v-35zM486 705v-110h-120v110h120z" />
    <glyph glyph-name="Agrave" unicode="&#xc0;" horiz-adv-x="495" 
d="M356 0l-27 166h-164l-27 -166h-119l136 850h184l136 -850h-119zM184 286h126l-63 410zM175 1043l141 -140h-99l-192 140h150z" />
    <glyph glyph-name="Aacute" unicode="&#xc1;" horiz-adv-x="495" 
d="M356 0l-27 166h-164l-27 -166h-119l136 850h184l136 -850h-119zM184 286h126l-63 410zM487 1043l-192 -140h-99l141 140h150z" />
    <glyph glyph-name="Acircumflex" unicode="&#xc2;" horiz-adv-x="496" 
d="M356 0l-27 166h-164l-27 -166h-119l136 850h184l136 -850h-119zM184 286h126l-63 410zM68 903l132 150h99l122 -150h-120l-52 91l-61 -91h-120z" />
    <glyph glyph-name="Atilde" unicode="&#xc3;" horiz-adv-x="496" 
d="M356 0l-27 166h-164l-27 -166h-119l136 850h184l136 -850h-119zM184 286h126l-63 410zM185 949q-17 8 -27.5 7.5t-16.5 -5.5t-11 -16.5t-5 -28.5h-88q-3 40 11 72t39 50.5t58 21.5t69 -15l79 -38q32 -15 50 -1.5t18 41.5h90q2 -23 -5.5 -47t-22.5 -44.5t-37 -33.5
t-49 -14h-23.5t-27.5 4.5t-40 15.5t-61 31z" />
    <glyph glyph-name="Adieresis" unicode="&#xc4;" horiz-adv-x="496" 
d="M204 973q0 -26 -16.5 -47.5t-42.5 -21.5h-24q-27 0 -42 22.5t-15 46.5t15 46.5t42 22.5h24q26 0 42.5 -21.5t16.5 -47.5zM434 973q0 -26 -16.5 -47.5t-42.5 -21.5h-24q-27 0 -42 22.5t-15 46.5t15 46.5t42 22.5h24q26 0 42.5 -21.5t16.5 -47.5zM356 0l-27 166h-164
l-27 -166h-119l136 850h184l136 -850h-119zM184 286h126l-63 410z" />
    <glyph glyph-name="Aring" unicode="&#xc5;" horiz-adv-x="495" 
d="M356 0l-27 166h-164l-27 -166h-119l136 850h184l136 -850h-119zM184 286h126l-63 410zM364 954q0 -21 -7 -40.5t-19.5 -35.5t-30 -25.5t-38.5 -9.5h-39q-22 0 -39 10t-29 26t-18 35.5t-6 39.5q0 19 6 39t18 36t29 26t39 10h39q21 0 38.5 -9.5t30 -25.5t19.5 -35.5
t7 -40.5zM292 954q0 17 -8.5 29.5t-27.5 12.5h-13q-17 0 -26 -12t-9 -30t9 -30t26 -12h13q19 0 27.5 12.5t8.5 29.5z" />
    <glyph glyph-name="AE" unicode="&#xc6;" horiz-adv-x="690" 
d="M356 0l-27 166h-164l-27 -166h-119l136 850h184l13 -83q22 37 59.5 60t84.5 23h142v-120h-142q-20 0 -33 -13.5t-13 -33.5v-203h188v-120h-188v-240h188v-120h-282zM184 286h126l-63 410z" />
    <glyph glyph-name="Ccedilla" unicode="&#xc7;" horiz-adv-x="412" 
d="M52 167v516q0 34 13 64.5t35.5 53.5t52.5 36t65 13h142v-120h-142q-20 0 -33 -13.5t-13 -33.5v-516q0 -20 13 -33.5t33 -13.5h142v-120h-142q-35 0 -65 13t-52.5 36t-35.5 53t-13 65zM172 -97v114h69v-47q54 0 80.5 -28.5t26.5 -67.5v-6q0 -24 -10 -43t-26.5 -32.5
t-38 -20.5t-43.5 -7h-74v69h74q20 0 36.5 8t16.5 26v2q0 14 -12 23.5t-32 9.5h-67z" />
    <glyph glyph-name="Egrave" unicode="&#xc8;" horiz-adv-x="412" 
d="M52 167v516q0 34 13 64.5t35.5 53.5t52.5 36t65 13h142v-120h-142q-20 0 -33 -13.5t-13 -33.5v-203h188v-120h-188v-193q0 -20 13 -33.5t33 -13.5h142v-120h-142q-35 0 -65 13t-52.5 36t-35.5 53t-13 65zM176 1043l141 -140h-99l-192 140h150z" />
    <glyph glyph-name="Eacute" unicode="&#xc9;" horiz-adv-x="412" 
d="M52 167v516q0 34 13 64.5t35.5 53.5t52.5 36t65 13h142v-120h-142q-20 0 -33 -13.5t-13 -33.5v-203h188v-120h-188v-193q0 -20 13 -33.5t33 -13.5h142v-120h-142q-35 0 -65 13t-52.5 36t-35.5 53t-13 65zM468 1043l-192 -140h-99l141 140h150z" />
    <glyph glyph-name="Ecircumflex" unicode="&#xca;" horiz-adv-x="412" 
d="M52 167v516q0 34 13 64.5t35.5 53.5t52.5 36t65 13h142v-120h-142q-20 0 -33 -13.5t-13 -33.5v-203h188v-120h-188v-193q0 -20 13 -33.5t33 -13.5h142v-120h-142q-35 0 -65 13t-52.5 36t-35.5 53t-13 65zM59 903l132 150h99l122 -150h-120l-52 91l-61 -91h-120z" />
    <glyph glyph-name="Edieresis" unicode="&#xcb;" horiz-adv-x="412" 
d="M52 167v516q0 34 13 64.5t35.5 53.5t52.5 36t65 13h142v-120h-142q-20 0 -33 -13.5t-13 -33.5v-203h188v-120h-188v-193q0 -20 13 -33.5t33 -13.5h142v-120h-142q-35 0 -65 13t-52.5 36t-35.5 53t-13 65zM420 973q0 -26 -16.5 -47.5t-42.5 -21.5h-24q-27 0 -42 22.5
t-15 46.5t15 46.5t42 22.5h24q26 0 42.5 -21.5t16.5 -47.5zM190 973q0 -26 -16.5 -47.5t-42.5 -21.5h-24q-27 0 -42 22.5t-15 46.5t15 46.5t42 22.5h24q26 0 42.5 -21.5t16.5 -47.5z" />
    <glyph glyph-name="Igrave" unicode="&#xcc;" horiz-adv-x="224" 
d="M52 0v850h120v-850h-120zM25 1044l141 -140h-99l-192 140h150z" />
    <glyph glyph-name="Iacute" unicode="&#xcd;" horiz-adv-x="224" 
d="M52 0v850h120v-850h-120zM346 1044l-192 -140h-99l141 140h150z" />
    <glyph glyph-name="Icircumflex" unicode="&#xce;" horiz-adv-x="224" 
d="M52 0v850h120v-850h-120zM-67 903l132 150h99l122 -150h-120l-52 91l-61 -91h-120z" />
    <glyph glyph-name="Idieresis" unicode="&#xcf;" horiz-adv-x="224" 
d="M52 0v850h120v-850h-120zM62 972q0 -26 -16.5 -47.5t-42.5 -21.5h-24q-27 0 -42 22.5t-15 46.5t15 46.5t42 22.5h24q26 0 42.5 -21.5t16.5 -47.5zM292 972q0 -26 -16.5 -47.5t-42.5 -21.5h-24q-27 0 -42 22.5t-15 46.5t15 46.5t42 22.5h24q26 0 42.5 -21.5t16.5 -47.5z
" />
    <glyph glyph-name="Eth" unicode="&#xd0;" horiz-adv-x="496" 
d="M68 0v365h-57v120h57v365h195q45 0 80.5 -17t59.5 -47q23 -29 32 -62.5t9 -65.5v-466q0 -32 -9 -65.5t-32 -62.5q-24 -30 -59.5 -47t-80.5 -17h-195zM263 120q20 0 30 5.5t15 12.5q7 8 11.5 22t4.5 32v466q0 18 -4.5 32t-10.5 22q-6 7 -16 12.5t-30 5.5h-75v-245h64v-120
h-64v-245h75z" />
    <glyph glyph-name="Ntilde" unicode="&#xd1;" horiz-adv-x="523" 
d="M351 0l-179 509v-509h-120v850h120l179 -509v509h120v-850h-120zM206 958q-17 8 -27.5 7.5t-16.5 -5.5t-11 -16.5t-5 -28.5h-88q-3 40 11 72t39 50.5t58 21.5t69 -15l79 -38q32 -15 50 -1.5t18 41.5h90q2 -23 -5.5 -47t-22.5 -44.5t-37 -33.5t-49 -14h-23.5t-27.5 4.5
t-40 15.5t-61 31z" />
    <glyph glyph-name="Ograve" unicode="&#xd2;" 
d="M177 1043l141 -140h-99l-192 140h150zM211 -4q-39 0 -68.5 17.5t-49.5 45t-30.5 61.5t-10.5 67v476q0 40 13 75.5t37 61t57 40.5t73 15h47q40 0 72 -16t54.5 -42.5t34 -61.5t11.5 -72v-476q0 -35 -11 -69.5t-32 -61.5t-50.5 -43.5t-65.5 -16.5h-81zM331 187v476
q0 29 -13.5 49.5t-42.5 22.5h-48q-31 -3 -43 -24.5t-12 -47.5v-476q0 -31 15 -51.5t46 -20.5h37q32 0 46.5 21.5t14.5 50.5z" />
    <glyph glyph-name="Oacute" unicode="&#xd3;" 
d="M495 1043l-192 -140h-99l141 140h150zM211 -4q-39 0 -68.5 17.5t-49.5 45t-30.5 61.5t-10.5 67v476q0 40 13 75.5t37 61t57 40.5t73 15h47q40 0 72 -16t54.5 -42.5t34 -61.5t11.5 -72v-476q0 -35 -11 -69.5t-32 -61.5t-50.5 -43.5t-65.5 -16.5h-81zM331 187v476
q0 29 -13.5 49.5t-42.5 22.5h-48q-31 -3 -43 -24.5t-12 -47.5v-476q0 -31 15 -51.5t46 -20.5h37q32 0 46.5 21.5t14.5 50.5z" />
    <glyph glyph-name="Ocircumflex" unicode="&#xd4;" 
d="M73 903l132 150h99l122 -150h-120l-52 91l-61 -91h-120zM211 -4q-39 0 -68.5 17.5t-49.5 45t-30.5 61.5t-10.5 67v476q0 40 13 75.5t37 61t57 40.5t73 15h47q40 0 72 -16t54.5 -42.5t34 -61.5t11.5 -72v-476q0 -35 -11 -69.5t-32 -61.5t-50.5 -43.5t-65.5 -16.5h-81z
M331 187v476q0 29 -13.5 49.5t-42.5 22.5h-48q-31 -3 -43 -24.5t-12 -47.5v-476q0 -31 15 -51.5t46 -20.5h37q32 0 46.5 21.5t14.5 50.5z" />
    <glyph glyph-name="Otilde" unicode="&#xd5;" 
d="M196 954q-17 8 -27.5 7.5t-16.5 -5.5t-11 -16.5t-5 -28.5h-88q-3 40 11 72t39 50.5t58 21.5t69 -15l79 -38q32 -15 50 -1.5t18 41.5h90q2 -23 -5.5 -47t-22.5 -44.5t-37 -33.5t-49 -14h-23.5t-27.5 4.5t-40 15.5t-61 31zM211 -4q-39 0 -68.5 17.5t-49.5 45t-30.5 61.5
t-10.5 67v476q0 40 13 75.5t37 61t57 40.5t73 15h47q40 0 72 -16t54.5 -42.5t34 -61.5t11.5 -72v-476q0 -35 -11 -69.5t-32 -61.5t-50.5 -43.5t-65.5 -16.5h-81zM331 187v476q0 29 -13.5 49.5t-42.5 22.5h-48q-31 -3 -43 -24.5t-12 -47.5v-476q0 -31 15 -51.5t46 -20.5h37
q32 0 46.5 21.5t14.5 50.5z" />
    <glyph glyph-name="Odieresis" unicode="&#xd6;" 
d="M210 972q0 -26 -16.5 -47.5t-42.5 -21.5h-24q-27 0 -42 22.5t-15 46.5t15 46.5t42 22.5h24q26 0 42.5 -21.5t16.5 -47.5zM440 972q0 -26 -16.5 -47.5t-42.5 -21.5h-24q-27 0 -42 22.5t-15 46.5t15 46.5t42 22.5h24q26 0 42.5 -21.5t16.5 -47.5zM211 -4q-39 0 -68.5 17.5
t-49.5 45t-30.5 61.5t-10.5 67v476q0 40 13 75.5t37 61t57 40.5t73 15h47q40 0 72 -16t54.5 -42.5t34 -61.5t11.5 -72v-476q0 -35 -11 -69.5t-32 -61.5t-50.5 -43.5t-65.5 -16.5h-81zM331 187v476q0 29 -13.5 49.5t-42.5 22.5h-48q-31 -3 -43 -24.5t-12 -47.5v-476
q0 -31 15 -51.5t46 -20.5h37q32 0 46.5 21.5t14.5 50.5z" />
    <glyph glyph-name="Oslash" unicode="&#xd8;" horiz-adv-x="488" 
d="M211 -4q-26 0 -47.5 7.5t-38.5 20.5l-10 -24h-120l61 141q-2 11 -3 23t-1 23v476q0 40 13 75.5t37 61t57 40.5t73 15h32q26 0 49 -7t42 -20l10 22h120l-57 -129q8 -30 8 -58v-476q0 -35 -11 -69t-32 -60.5t-50.5 -43.5t-65.5 -18h-66zM316 187v275l-137 -314
q7 -15 20.5 -24t33.5 -9h22q32 0 46.5 21.5t14.5 50.5zM260 735h-33q-16 0 -26.5 -6.5t-17 -16.5t-9 -23t-2.5 -26v-256l132 303q-7 11 -18 17.5t-26 7.5z" />
    <glyph glyph-name="Ugrave" unicode="&#xd9;" 
d="M190 1043l141 -140h-99l-192 140h150zM172 850v-663q0 -31 15 -51.5t46 -20.5h37q32 0 46.5 21.5t14.5 50.5v663h120v-663q0 -37 -11.5 -71.5t-32 -61t-50 -42.5t-65.5 -16h-81q-38 0 -67.5 16.5t-50 43.5t-31 61t-10.5 70v663h120z" />
    <glyph glyph-name="Uacute" unicode="&#xda;" 
d="M482 1043l-192 -140h-99l141 140h150zM172 850v-663q0 -31 15 -51.5t46 -20.5h37q32 0 46.5 21.5t14.5 50.5v663h120v-663q0 -37 -11.5 -71.5t-32 -61t-50 -42.5t-65.5 -16h-81q-38 0 -67.5 16.5t-50 43.5t-31 61t-10.5 70v663h120z" />
    <glyph glyph-name="Ucircumflex" unicode="&#xdb;" 
d="M79 903l132 150h99l122 -150h-120l-52 91l-61 -91h-120zM172 850v-663q0 -31 15 -51.5t46 -20.5h37q32 0 46.5 21.5t14.5 50.5v663h120v-663q0 -37 -11.5 -71.5t-32 -61t-50 -42.5t-65.5 -16h-81q-38 0 -67.5 16.5t-50 43.5t-31 61t-10.5 70v663h120z" />
    <glyph glyph-name="Udieresis" unicode="&#xdc;" 
d="M206 972q0 -26 -16.5 -47.5t-42.5 -21.5h-24q-27 0 -42 22.5t-15 46.5t15 46.5t42 22.5h24q26 0 42.5 -21.5t16.5 -47.5zM436 972q0 -26 -16.5 -47.5t-42.5 -21.5h-24q-27 0 -42 22.5t-15 46.5t15 46.5t42 22.5h24q26 0 42.5 -21.5t16.5 -47.5zM172 850v-663
q0 -31 15 -51.5t46 -20.5h37q32 0 46.5 21.5t14.5 50.5v663h120v-663q0 -37 -11.5 -71.5t-32 -61t-50 -42.5t-65.5 -16h-81q-38 0 -67.5 16.5t-50 43.5t-31 61t-10.5 70v663h120z" />
    <glyph glyph-name="Yacute" unicode="&#xdd;" horiz-adv-x="495" 
d="M494 1043l-192 -140h-99l141 140h150zM313 270v-270h-120v270l-179 580h120l119 -386l119 386h120z" />
    <glyph glyph-name="agrave" unicode="&#xe0;" horiz-adv-x="494" 
d="M356 0l-27 166h-164l-27 -166h-119l136 850h184l136 -850h-119zM184 286h126l-63 410zM172 1043l141 -140h-99l-192 140h150z" />
    <glyph glyph-name="aacute" unicode="&#xe1;" horiz-adv-x="494" 
d="M356 0l-27 166h-164l-27 -166h-119l136 850h184l136 -850h-119zM184 286h126l-63 410zM484 1043l-192 -140h-99l141 140h150z" />
    <glyph glyph-name="acircumflex" unicode="&#xe2;" horiz-adv-x="494" 
d="M356 0l-27 166h-164l-27 -166h-119l136 850h184l136 -850h-119zM184 286h126l-63 410zM71 903l132 150h99l122 -150h-120l-52 91l-61 -91h-120z" />
    <glyph glyph-name="atilde" unicode="&#xe3;" horiz-adv-x="494" 
d="M356 0l-27 166h-164l-27 -166h-119l136 850h184l136 -850h-119zM184 286h126l-63 410zM182 953q-17 8 -27.5 7.5t-16.5 -5.5t-11 -16.5t-5 -28.5h-88q-3 40 11 72t39 50.5t58 21.5t69 -15l79 -38q32 -15 50 -1.5t18 41.5h90q2 -23 -5.5 -47t-22.5 -44.5t-37 -33.5
t-49 -14h-23.5t-27.5 4.5t-40 15.5t-61 31z" />
    <glyph glyph-name="adieresis" unicode="&#xe4;" horiz-adv-x="494" 
d="M356 0l-27 166h-164l-27 -166h-119l136 850h184l136 -850h-119zM184 286h126l-63 410zM200 972q0 -26 -16.5 -47.5t-42.5 -21.5h-24q-27 0 -42 22.5t-15 46.5t15 46.5t42 22.5h24q26 0 42.5 -21.5t16.5 -47.5zM430 972q0 -26 -16.5 -47.5t-42.5 -21.5h-24q-27 0 -42 22.5
t-15 46.5t15 46.5t42 22.5h24q26 0 42.5 -21.5t16.5 -47.5z" />
    <glyph glyph-name="aring" unicode="&#xe5;" horiz-adv-x="493" 
d="M363 961q0 -20 -6.5 -39.5t-18.5 -35.5t-29 -25.5t-37 -10.5h67l136 -850h-119l-27 166h-164l-27 -166h-119l136 850h69q-21 1 -37 11.5t-27.5 26t-17 35t-5.5 38.5t6 39t18 36t29 26t39 10h39q21 0 38.5 -9.5t30 -25.5t19.5 -35.5t7 -40.5zM184 286h126l-63 410z
M291 961q0 17 -8.5 29.5t-27.5 12.5h-13q-17 0 -26 -12t-9 -30t9 -30t26 -12h13q19 0 27.5 12.5t8.5 29.5z" />
    <glyph glyph-name="ae" unicode="&#xe6;" horiz-adv-x="693" 
d="M333 0v166h-149l-46 -166h-119l206 850h416v-120h-188v-249h188v-120h-188v-241h188v-120h-308zM333 286v444h-16l-103 -444h119z" />
    <glyph glyph-name="ccedilla" unicode="&#xe7;" horiz-adv-x="488" 
d="M181 -97v96q-32 6 -56 25t-40 45.5t-24.5 57t-8.5 60.5v476q0 40 13 75.5t37 61t57 40.5t73 15h32q40 0 72 -16t54 -42.5t34 -61.5t12 -72v-82h-120v82q0 29 -13.5 49.5t-42.5 22.5h-33q-15 0 -25.5 -6.5t-17 -16.5t-9.5 -23t-3 -26v-476q0 -31 15 -51.5t46 -20.5h22
q32 0 46.5 21.5t14.5 50.5v91h120v-91q0 -35 -11 -69.5t-31.5 -61.5t-50 -43.5t-66.5 -16.5h-27v-26q54 0 80.5 -28.5t26.5 -67.5v-6q0 -24 -10 -43t-26.5 -32.5t-38 -20.5t-43.5 -7h-74v69h74q20 0 36.5 8t16.5 26v2q0 14 -12 23.5t-32 9.5h-67z" />
    <glyph glyph-name="egrave" unicode="&#xe8;" horiz-adv-x="412" 
d="M52 0v850h308v-120h-188v-249h188v-120h-188v-241h188v-120h-308zM139 1043l141 -140h-99l-192 140h150z" />
    <glyph glyph-name="eacute" unicode="&#xe9;" horiz-adv-x="412" 
d="M52 0v850h308v-120h-188v-249h188v-120h-188v-241h188v-120h-308zM433 1043l-192 -140h-99l141 140h150z" />
    <glyph glyph-name="ecircumflex" unicode="&#xea;" horiz-adv-x="412" 
d="M52 0v850h308v-120h-188v-249h188v-120h-188v-241h188v-120h-308zM34 903l132 150h99l122 -150h-120l-52 91l-61 -91h-120z" />
    <glyph glyph-name="edieresis" unicode="&#xeb;" horiz-adv-x="412" 
d="M52 0v850h308v-120h-188v-249h188v-120h-188v-241h188v-120h-308zM163 972q0 -26 -16.5 -47.5t-42.5 -21.5h-24q-27 0 -42 22.5t-15 46.5t15 46.5t42 22.5h24q26 0 42.5 -21.5t16.5 -47.5zM393 972q0 -26 -16.5 -47.5t-42.5 -21.5h-24q-27 0 -42 22.5t-15 46.5t15 46.5
t42 22.5h24q26 0 42.5 -21.5t16.5 -47.5z" />
    <glyph glyph-name="igrave" unicode="&#xec;" horiz-adv-x="303" 
d="M131 0v730h-99v120h219v-850h-120zM83 1043l141 -140h-99l-192 140h150z" />
    <glyph glyph-name="iacute" unicode="&#xed;" horiz-adv-x="303" 
d="M131 0v730h-99v120h219v-850h-120zM371 1043l-192 -140h-99l141 140h150z" />
    <glyph glyph-name="icircumflex" unicode="&#xee;" horiz-adv-x="303" 
d="M131 0v730h-99v120h219v-850h-120zM-29 903l132 150h99l122 -150h-120l-52 91l-61 -91h-120z" />
    <glyph glyph-name="idieresis" unicode="&#xef;" horiz-adv-x="303" 
d="M131 0v730h-99v120h219v-850h-120zM96 972q0 -26 -16.5 -47.5t-42.5 -21.5h-24q-27 0 -42 22.5t-15 46.5t15 46.5t42 22.5h24q26 0 42.5 -21.5t16.5 -47.5zM326 972q0 -26 -16.5 -47.5t-42.5 -21.5h-24q-27 0 -42 22.5t-15 46.5t15 46.5t42 22.5h24q26 0 42.5 -21.5
t16.5 -47.5z" />
    <glyph glyph-name="ntilde" unicode="&#xf1;" horiz-adv-x="523" 
d="M351 0l-179 509v-509h-120v850h120l179 -509v509h120v-850h-120zM204 954q-17 8 -27.5 7.5t-16.5 -5.5t-11 -16.5t-5 -28.5h-88q-3 40 11 72t39 50.5t58 21.5t69 -15l79 -38q32 -15 50 -1.5t18 41.5h90q2 -23 -5.5 -47t-22.5 -44.5t-37 -33.5t-49 -14h-23.5t-27.5 4.5
t-40 15.5t-61 31z" />
    <glyph glyph-name="ograve" unicode="&#xf2;" 
d="M167 1043l141 -140h-99l-192 140h150zM211 -4q-39 0 -68.5 17.5t-49.5 45t-30.5 61.5t-10.5 67v476q0 40 13 75.5t37 61t57 40.5t73 15h47q40 0 72 -16t54.5 -42.5t34 -61.5t11.5 -72v-476q0 -35 -11 -69.5t-32 -61.5t-50.5 -43.5t-65.5 -16.5h-81zM331 187v476
q0 29 -13.5 49.5t-42.5 22.5h-48q-31 -3 -43 -24.5t-12 -47.5v-476q0 -31 15 -51.5t46 -20.5h37q32 0 46.5 21.5t14.5 50.5z" />
    <glyph glyph-name="oacute" unicode="&#xf3;" 
d="M488 1043l-192 -140h-99l141 140h150zM211 -4q-39 0 -68.5 17.5t-49.5 45t-30.5 61.5t-10.5 67v476q0 40 13 75.5t37 61t57 40.5t73 15h47q40 0 72 -16t54.5 -42.5t34 -61.5t11.5 -72v-476q0 -35 -11 -69.5t-32 -61.5t-50.5 -43.5t-65.5 -16.5h-81zM331 187v476
q0 29 -13.5 49.5t-42.5 22.5h-48q-31 -3 -43 -24.5t-12 -47.5v-476q0 -31 15 -51.5t46 -20.5h37q32 0 46.5 21.5t14.5 50.5z" />
    <glyph glyph-name="ocircumflex" unicode="&#xf4;" 
d="M68 903l132 150h99l122 -150h-120l-52 91l-61 -91h-120zM211 -4q-39 0 -68.5 17.5t-49.5 45t-30.5 61.5t-10.5 67v476q0 40 13 75.5t37 61t57 40.5t73 15h47q40 0 72 -16t54.5 -42.5t34 -61.5t11.5 -72v-476q0 -35 -11 -69.5t-32 -61.5t-50.5 -43.5t-65.5 -16.5h-81z
M331 187v476q0 29 -13.5 49.5t-42.5 22.5h-48q-31 -3 -43 -24.5t-12 -47.5v-476q0 -31 15 -51.5t46 -20.5h37q32 0 46.5 21.5t14.5 50.5z" />
    <glyph glyph-name="otilde" unicode="&#xf5;" 
d="M187 954q-17 8 -27.5 7.5t-16.5 -5.5t-11 -16.5t-5 -28.5h-88q-3 40 11 72t39 50.5t58 21.5t69 -15l79 -38q32 -15 50 -1.5t18 41.5h90q2 -23 -5.5 -47t-22.5 -44.5t-37 -33.5t-49 -14h-23.5t-27.5 4.5t-40 15.5t-61 31zM211 -4q-39 0 -68.5 17.5t-49.5 45t-30.5 61.5
t-10.5 67v476q0 40 13 75.5t37 61t57 40.5t73 15h47q40 0 72 -16t54.5 -42.5t34 -61.5t11.5 -72v-476q0 -35 -11 -69.5t-32 -61.5t-50.5 -43.5t-65.5 -16.5h-81zM331 187v476q0 29 -13.5 49.5t-42.5 22.5h-48q-31 -3 -43 -24.5t-12 -47.5v-476q0 -31 15 -51.5t46 -20.5h37
q32 0 46.5 21.5t14.5 50.5z" />
    <glyph glyph-name="odieresis" unicode="&#xf6;" 
d="M215 972q0 -26 -16.5 -47.5t-42.5 -21.5h-24q-27 0 -42 22.5t-15 46.5t15 46.5t42 22.5h24q26 0 42.5 -21.5t16.5 -47.5zM445 972q0 -26 -16.5 -47.5t-42.5 -21.5h-24q-27 0 -42 22.5t-15 46.5t15 46.5t42 22.5h24q26 0 42.5 -21.5t16.5 -47.5zM211 -4q-39 0 -68.5 17.5
t-49.5 45t-30.5 61.5t-10.5 67v476q0 40 13 75.5t37 61t57 40.5t73 15h47q40 0 72 -16t54.5 -42.5t34 -61.5t11.5 -72v-476q0 -35 -11 -69.5t-32 -61.5t-50.5 -43.5t-65.5 -16.5h-81zM331 187v476q0 29 -13.5 49.5t-42.5 22.5h-48q-31 -3 -43 -24.5t-12 -47.5v-476
q0 -31 15 -51.5t46 -20.5h37q32 0 46.5 21.5t14.5 50.5z" />
    <glyph glyph-name="oslash" unicode="&#xf8;" horiz-adv-x="488" 
d="M211 -4q-26 0 -47 7.5t-39 20.5l-10 -24h-120l61 141q-2 11 -3 23t-1 23v476q0 40 13 75.5t37 61t57 40.5t73 15h32q26 0 49 -7t42 -20l10 22h120l-57 -130q8 -29 8 -57v-476q0 -35 -11 -69.5t-32 -61.5t-50.5 -43.5t-65.5 -16.5h-66zM316 187v275l-137 -314
q7 -15 20.5 -24t33.5 -9h22q32 0 46.5 21.5t14.5 50.5zM260 735h-33q-31 -3 -43 -24.5t-12 -47.5v-256l132 303q-7 11 -18 17.5t-26 7.5z" />
    <glyph glyph-name="ugrave" unicode="&#xf9;" 
d="M172 850v-663q0 -31 15 -51.5t46 -20.5h37q32 0 46.5 21.5t14.5 50.5v663h120v-663q0 -37 -11.5 -71.5t-32 -61t-50 -42.5t-65.5 -16h-81q-38 0 -67.5 16.5t-50 43.5t-31 61t-10.5 70v663h120zM192 1043l141 -140h-99l-192 140h150z" />
    <glyph glyph-name="uacute" unicode="&#xfa;" 
d="M465 1043l-192 -140h-99l141 140h150zM172 850v-663q0 -31 15 -51.5t46 -20.5h37q32 0 46.5 21.5t14.5 50.5v663h120v-663q0 -37 -11.5 -71.5t-32 -61t-50 -42.5t-65.5 -16h-81q-38 0 -67.5 16.5t-50 43.5t-31 61t-10.5 70v663h120z" />
    <glyph glyph-name="ucircumflex" unicode="&#xfb;" 
d="M67 903l132 150h99l122 -150h-120l-52 91l-61 -91h-120zM172 850v-663q0 -31 15 -51.5t46 -20.5h37q32 0 46.5 21.5t14.5 50.5v663h120v-663q0 -37 -11.5 -71.5t-32 -61t-50 -42.5t-65.5 -16h-81q-38 0 -67.5 16.5t-50 43.5t-31 61t-10.5 70v663h120z" />
    <glyph glyph-name="udieresis" unicode="&#xfc;" 
d="M201 972q0 -26 -16.5 -47.5t-42.5 -21.5h-24q-27 0 -42 22.5t-15 46.5t15 46.5t42 22.5h24q26 0 42.5 -21.5t16.5 -47.5zM431 972q0 -26 -16.5 -47.5t-42.5 -21.5h-24q-27 0 -42 22.5t-15 46.5t15 46.5t42 22.5h24q26 0 42.5 -21.5t16.5 -47.5zM172 850v-663
q0 -31 15 -51.5t46 -20.5h37q32 0 46.5 21.5t14.5 50.5v663h120v-663q0 -37 -11.5 -71.5t-32 -61t-50 -42.5t-65.5 -16h-81q-38 0 -67.5 16.5t-50 43.5t-31 61t-10.5 70v663h120z" />
    <glyph glyph-name="yacute" unicode="&#xfd;" horiz-adv-x="507" 
d="M479 1043l-192 -140h-99l141 140h150zM313 270v-270h-120v270l-179 580h120l119 -386l119 386h120z" />
    <glyph glyph-name="ydieresis" unicode="&#xff;" horiz-adv-x="511" 
d="M200 972q0 -26 -16.5 -47.5t-42.5 -21.5h-24q-27 0 -42 22.5t-15 46.5t15 46.5t42 22.5h24q26 0 42.5 -21.5t16.5 -47.5zM430 972q0 -26 -16.5 -47.5t-42.5 -21.5h-24q-27 0 -42 22.5t-15 46.5t15 46.5t42 22.5h24q26 0 42.5 -21.5t16.5 -47.5zM313 270v-270h-120v270
l-179 580h120l119 -386l119 386h120z" />
    <glyph glyph-name="Abreve" unicode="&#x102;" horiz-adv-x="496" 
d="M355 0l-27 166h-164l-27 -166h-119l136 850h184l136 -850h-119zM183 286h126l-63 410zM384 1027q0 -23 -8.5 -45t-23.5 -39.5t-36 -28.5t-46 -11h-47q-26 0 -46.5 11t-34.5 29t-21.5 40t-7.5 44h84q0 -20 10.5 -33.5t31.5 -13.5h16q23 0 32.5 14.5t9.5 32.5h87z" />
    <glyph glyph-name="abreve" unicode="&#x103;" horiz-adv-x="498" 
d="M384 1027q0 -23 -8.5 -45t-23.5 -39.5t-36 -28.5t-46 -11h-47q-26 0 -46.5 11t-34.5 29t-21.5 40t-7.5 44h84q0 -20 10.5 -33.5t31.5 -13.5h16q23 0 32.5 14.5t9.5 32.5h87zM355 0l-27 166h-164l-27 -166h-119l136 850h184l136 -850h-119zM183 286h126l-63 410z" />
    <glyph glyph-name="Aogonek" unicode="&#x104;" horiz-adv-x="496" 
d="M474 -188h-52q-23 0 -46 7.5t-41.5 22.5t-30 37.5t-11.5 52.5v25q0 30 15 55.5t38 42.5l-18 111h-164l-27 -166h-119l136 850h184l136 -850h-52v-1q-20 0 -33.5 -10.5t-13.5 -31.5v-16q0 -23 14.5 -32.5t32.5 -9.5h52v-87zM183 286h126l-63 410z" />
    <glyph glyph-name="aogonek" unicode="&#x105;" horiz-adv-x="498" 
d="M474 -188h-52q-23 0 -46 7.5t-41.5 22.5t-30 37.5t-11.5 52.5v25q0 30 15 55.5t38 42.5l-18 111h-164l-27 -166h-119l136 850h184l136 -850h-52v-1q-20 0 -33.5 -10.5t-13.5 -31.5v-16q0 -23 14.5 -32.5t32.5 -9.5h52v-87zM183 286h126l-63 410z" />
    <glyph glyph-name="Cacute" unicode="&#x106;" horiz-adv-x="412" 
d="M52 167v516q0 34 13 64.5t35.5 53.5t52.5 36t65 13h142v-120h-142q-20 0 -33 -13.5t-13 -33.5v-516q0 -20 13 -33.5t33 -13.5h142v-120h-142q-35 0 -65 13t-52.5 36t-35.5 53t-13 65zM427 1043l-192 -140h-99l141 140h150z" />
    <glyph glyph-name="cacute" unicode="&#x107;" horiz-adv-x="488" 
d="M436 278v-91q0 -35 -11 -69.5t-31.5 -61.5t-50 -43.5t-66.5 -16.5h-66q-39 0 -68.5 17.5t-49.5 45t-30.5 61.5t-10.5 67v476q0 40 13 75.5t37 61t57 40.5t73 15h32q40 0 72 -16t54 -42.5t34 -61.5t12 -72v-82h-120v82q0 29 -13.5 49.5t-42.5 22.5h-33q-15 0 -25.5 -6.5
t-17 -16.5t-9.5 -23t-3 -26v-476q0 -31 15 -51.5t46 -20.5h22q32 0 46.5 21.5t14.5 50.5v91h120zM449 1043l-192 -140h-99l141 140h150z" />
    <glyph glyph-name="Ccircumflex" unicode="&#x108;" horiz-adv-x="412" 
d="M52 167v516q0 34 13 64.5t35.5 53.5t52.5 36t65 13h142v-120h-142q-20 0 -33 -13.5t-13 -33.5v-516q0 -20 13 -33.5t33 -13.5h142v-120h-142q-35 0 -65 13t-52.5 36t-35.5 53t-13 65zM41 903l132 150h99l122 -150h-120l-52 91l-61 -91h-120z" />
    <glyph glyph-name="ccircumflex" unicode="&#x109;" horiz-adv-x="488" 
d="M71 903l132 150h99l122 -150h-120l-52 91l-61 -91h-120zM436 278v-91q0 -35 -11 -69.5t-31.5 -61.5t-50 -43.5t-66.5 -16.5h-66q-39 0 -68.5 17.5t-49.5 45t-30.5 61.5t-10.5 67v476q0 40 13 75.5t37 61t57 40.5t73 15h32q40 0 72 -16t54 -42.5t34 -61.5t12 -72v-82h-120
v82q0 29 -13.5 49.5t-42.5 22.5h-33q-15 0 -25.5 -6.5t-17 -16.5t-9.5 -23t-3 -26v-476q0 -31 15 -51.5t46 -20.5h22q32 0 46.5 21.5t14.5 50.5v91h120z" />
    <glyph glyph-name="Cdotaccent" unicode="&#x10a;" horiz-adv-x="412" 
d="M52 167v516q0 34 13 64.5t35.5 53.5t52.5 36t65 13h142v-120h-142q-20 0 -33 -13.5t-13 -33.5v-516q0 -20 13 -33.5t33 -13.5h142v-120h-142q-35 0 -65 13t-52.5 36t-35.5 53t-13 65zM317 972q0 -26 -16.5 -47.5t-42.5 -21.5h-24q-27 0 -42 22.5t-15 46.5t15 46.5
t42 22.5h24q26 0 42.5 -21.5t16.5 -47.5z" />
    <glyph glyph-name="cdotaccent" unicode="&#x10b;" horiz-adv-x="488" 
d="M436 278v-91q0 -35 -11 -69.5t-31.5 -61.5t-50 -43.5t-66.5 -16.5h-66q-39 0 -68.5 17.5t-49.5 45t-30.5 61.5t-10.5 67v476q0 40 13 75.5t37 61t57 40.5t73 15h32q40 0 72 -16t54 -42.5t34 -61.5t12 -72v-82h-120v82q0 29 -13.5 49.5t-42.5 22.5h-33q-15 0 -25.5 -6.5
t-17 -16.5t-9.5 -23t-3 -26v-476q0 -31 15 -51.5t46 -20.5h22q32 0 46.5 21.5t14.5 50.5v91h120zM317 972q0 -26 -16.5 -47.5t-42.5 -21.5h-24q-27 0 -42 22.5t-15 46.5t15 46.5t42 22.5h24q26 0 42.5 -21.5t16.5 -47.5z" />
    <glyph glyph-name="Ccaron" unicode="&#x10c;" horiz-adv-x="412" 
d="M52 167v516q0 34 13 64.5t35.5 53.5t52.5 36t65 13h142v-120h-142q-20 0 -33 -13.5t-13 -33.5v-516q0 -20 13 -33.5t33 -13.5h142v-120h-142q-35 0 -65 13t-52.5 36t-35.5 53t-13 65zM177 1053l61 -91l52 91h120l-122 -150h-99l-132 150h120z" />
    <glyph glyph-name="ccaron" unicode="&#x10d;" horiz-adv-x="488" 
d="M436 278v-91q0 -35 -11 -69.5t-31.5 -61.5t-50 -43.5t-66.5 -16.5h-66q-39 0 -68.5 17.5t-49.5 45t-30.5 61.5t-10.5 67v476q0 40 13 75.5t37 61t57 40.5t73 15h32q40 0 72 -16t54 -42.5t34 -61.5t12 -72v-82h-120v82q0 29 -13.5 49.5t-42.5 22.5h-33q-15 0 -25.5 -6.5
t-17 -16.5t-9.5 -23t-3 -26v-476q0 -31 15 -51.5t46 -20.5h22q32 0 46.5 21.5t14.5 50.5v91h120zM193 1053l61 -91l52 91h120l-122 -150h-99l-132 150h120z" />
    <glyph glyph-name="Dcaron" unicode="&#x10e;" horiz-adv-x="480" 
d="M52 0v850h195q45 0 80.5 -17t59.5 -47q23 -29 32 -62.5t9 -65.5v-466q0 -32 -9 -65.5t-32 -62.5q-24 -30 -59.5 -47t-80.5 -17h-195zM247 120q20 0 30 5.5t15 12.5q7 8 11.5 22t4.5 32v466q0 18 -4.5 32t-10.5 22q-6 7 -16 12.5t-30 5.5h-75v-610h75zM175 1053l61 -91
l52 91h120l-122 -150h-99l-132 150h120z" />
    <glyph glyph-name="Dcroat" unicode="&#x110;" horiz-adv-x="480" 
d="M-31 490h83v360h195q45 0 80.5 -17t59.5 -47q23 -29 32 -62.5t9 -65.5v-466q0 -32 -9 -65.5t-32 -62.5q-24 -30 -59.5 -47t-80.5 -17h-195v370h-83v120zM247 120q20 0 30 5.5t15 12.5q7 8 11.5 22t4.5 32v466q0 18 -4.5 32t-10.5 22q-6 7 -16 12.5t-30 5.5h-75v-240h88
v-120h-88v-250h75z" />
    <glyph glyph-name="dcroat" unicode="&#x111;" horiz-adv-x="480" 
d="M52 0v370h-83v120h83v360h195q42 0 75.5 -15.5t57 -42t36 -61.5t12.5 -73v-466q0 -41 -13.5 -76t-37.5 -60.5t-57 -40.5t-73 -15h-195zM247 120q32 0 46.5 21.5t14.5 50.5v466q0 31 -14.5 51.5t-46.5 20.5h-75v-240h88v-120h-88v-250h75z" />
    <glyph glyph-name="Ebreve" unicode="&#x114;" horiz-adv-x="412" 
d="M52 167v516q0 34 13 64.5t35.5 53.5t52.5 36t65 13h142v-120h-142q-20 0 -33 -13.5t-13 -33.5v-203h188v-120h-188v-193q0 -20 13 -33.5t33 -13.5h142v-120h-142q-35 0 -65 13t-52.5 36t-35.5 53t-13 65zM362 1026q0 -23 -8.5 -45t-23.5 -39.5t-36 -28.5t-46 -11h-47
q-26 0 -46.5 11t-34.5 29t-21.5 40t-7.5 44h84q0 -20 10.5 -33.5t31.5 -13.5h16q23 0 32.5 14.5t9.5 32.5h87z" />
    <glyph glyph-name="ebreve" unicode="&#x115;" horiz-adv-x="412" 
d="M52 0v850h308v-120h-188v-249h188v-120h-188v-241h188v-120h-308zM341 1026q0 -23 -8.5 -45t-23.5 -39.5t-36 -28.5t-46 -11h-47q-26 0 -46.5 11t-34.5 29t-21.5 40t-7.5 44h84q0 -20 10.5 -33.5t31.5 -13.5h16q23 0 32.5 14.5t9.5 32.5h87z" />
    <glyph glyph-name="Edotaccent" unicode="&#x116;" horiz-adv-x="412" 
d="M52 167v516q0 34 13 64.5t35.5 53.5t52.5 36t65 13h142v-120h-142q-20 0 -33 -13.5t-13 -33.5v-203h188v-120h-188v-193q0 -20 13 -33.5t33 -13.5h142v-120h-142q-35 0 -65 13t-52.5 36t-35.5 53t-13 65zM306 971q0 -26 -16.5 -47.5t-42.5 -21.5h-24q-27 0 -42 22.5
t-15 46.5t15 46.5t42 22.5h24q26 0 42.5 -21.5t16.5 -47.5z" />
    <glyph glyph-name="edotaccent" unicode="&#x117;" horiz-adv-x="412" 
d="M52 0v850h308v-120h-188v-249h188v-120h-188v-241h188v-120h-308zM276 971q0 -26 -16.5 -47.5t-42.5 -21.5h-24q-27 0 -42 22.5t-15 46.5t15 46.5t42 22.5h24q26 0 42.5 -21.5t16.5 -47.5z" />
    <glyph glyph-name="Eogonek" unicode="&#x118;" horiz-adv-x="412" 
d="M320 -188h-52q-23 0 -46 7.5t-41.5 22.5t-30 37.5t-11.5 52.5v25q0 15 4 29t11 26q-45 19 -73.5 60.5t-28.5 94.5v516q0 34 13 64.5t35.5 53.5t52.5 36t65 13h142v-120h-142q-20 0 -33 -13.5t-13 -33.5v-203h188v-120h-188v-193q0 -20 13 -33.5t33 -13.5h142v-120h-92v-1
q-20 0 -33.5 -10.5t-13.5 -31.5v-16q0 -23 14.5 -32.5t32.5 -9.5h52v-87z" />
    <glyph glyph-name="eogonek" unicode="&#x119;" horiz-adv-x="412" 
d="M52 0v850h308v-120h-188v-249h188v-120h-188v-241h188v-120h-92v-1q-20 0 -33.5 -10.5t-13.5 -31.5v-16q0 -23 14.5 -32.5t32.5 -9.5h52v-87h-52q-23 0 -46 7.5t-41.5 22.5t-30 37.5t-11.5 52.5v25q0 23 9 43h-96z" />
    <glyph glyph-name="Ecaron" unicode="&#x11a;" horiz-adv-x="412" 
d="M52 167v516q0 34 13 64.5t35.5 53.5t52.5 36t65 13h142v-120h-142q-20 0 -33 -13.5t-13 -33.5v-203h188v-120h-188v-193q0 -20 13 -33.5t33 -13.5h142v-120h-142q-35 0 -65 13t-52.5 36t-35.5 53t-13 65zM169 1052l61 -91l52 91h120l-122 -150h-99l-132 150h120z" />
    <glyph glyph-name="ecaron" unicode="&#x11b;" horiz-adv-x="412" 
d="M52 0v850h308v-120h-188v-249h188v-120h-188v-241h188v-120h-308zM139 1052l61 -91l52 91h120l-122 -150h-99l-132 150h120z" />
    <glyph glyph-name="Gcircumflex" unicode="&#x11c;" horiz-adv-x="488" 
d="M436 451v-451h-159h-66q-39 0 -68.5 18t-50 46t-30.5 62t-10 65v472q0 40 13 75.5t37 61t57 40.5t73 15h32q40 0 72 -16t54.5 -42.5t34 -61.5t11.5 -72v-80h-120v80q0 29 -13.5 49.5t-42.5 22.5h-33q-31 -3 -43 -24.5t-12 -47.5v-472q0 -31 15 -51.5t46 -20.5h22h61v212
h-80v120h200zM64 902l132 150h99l122 -150h-120l-52 91l-61 -91h-120z" />
    <glyph glyph-name="gcircumflex" unicode="&#x11d;" horiz-adv-x="488" 
d="M436 455v-268q0 -34 -11 -68t-32 -61.5t-50.5 -44.5t-65.5 -17h-66q-39 0 -68.5 18t-50 46t-30.5 62t-10 65v476q0 40 13 75.5t37 61t57 40.5t73 15h32q40 0 72 -16t54.5 -42.5t34 -61.5t11.5 -72v-80h-120v80q0 29 -13.5 49.5t-42.5 22.5h-33q-31 -3 -43 -24.5
t-12 -47.5v-476q0 -31 15 -51.5t46 -20.5h22q32 0 46.5 21.5t14.5 50.5v148h-80v120h200zM64 902l132 150h99l122 -150h-120l-52 91l-61 -91h-120z" />
    <glyph glyph-name="Gbreve" unicode="&#x11e;" horiz-adv-x="488" 
d="M436 451v-451h-159h-66q-39 0 -68.5 18t-50 46t-30.5 62t-10 65v472q0 40 13 75.5t37 61t57 40.5t73 15h32q40 0 72 -16t54.5 -42.5t34 -61.5t11.5 -72v-80h-120v80q0 29 -13.5 49.5t-42.5 22.5h-33q-31 -3 -43 -24.5t-12 -47.5v-472q0 -31 15 -51.5t46 -20.5h22h61v212
h-80v120h200zM381 1027q0 -23 -8.5 -45t-23.5 -39.5t-36 -28.5t-46 -11h-47q-26 0 -46.5 11t-34.5 29t-21.5 40t-7.5 44h84q0 -20 10.5 -33.5t31.5 -13.5h16q23 0 32.5 14.5t9.5 32.5h87z" />
    <glyph glyph-name="gbreve" unicode="&#x11f;" horiz-adv-x="488" 
d="M436 455v-268q0 -34 -11 -68t-32 -61.5t-50.5 -44.5t-65.5 -17h-66q-39 0 -68.5 18t-50 46t-30.5 62t-10 65v476q0 40 13 75.5t37 61t57 40.5t73 15h32q40 0 72 -16t54.5 -42.5t34 -61.5t11.5 -72v-80h-120v80q0 29 -13.5 49.5t-42.5 22.5h-33q-31 -3 -43 -24.5
t-12 -47.5v-476q0 -31 15 -51.5t46 -20.5h22q32 0 46.5 21.5t14.5 50.5v148h-80v120h200zM379 1026q0 -23 -8.5 -45t-23.5 -39.5t-36 -28.5t-46 -11h-47q-26 0 -46.5 11t-34.5 29t-21.5 40t-7.5 44h84q0 -20 10.5 -33.5t31.5 -13.5h16q23 0 32.5 14.5t9.5 32.5h87z" />
    <glyph glyph-name="Gdotaccent" unicode="&#x120;" horiz-adv-x="488" 
d="M436 451v-451h-159h-66q-39 0 -68.5 18t-50 46t-30.5 62t-10 65v472q0 40 13 75.5t37 61t57 40.5t73 15h32q40 0 72 -16t54.5 -42.5t34 -61.5t11.5 -72v-80h-120v80q0 29 -13.5 49.5t-42.5 22.5h-33q-31 -3 -43 -24.5t-12 -47.5v-472q0 -31 15 -51.5t46 -20.5h22h61v212
h-80v120h200zM324 971q0 -26 -16.5 -47.5t-42.5 -21.5h-24q-27 0 -42 22.5t-15 46.5t15 46.5t42 22.5h24q26 0 42.5 -21.5t16.5 -47.5z" />
    <glyph glyph-name="gdotaccent" unicode="&#x121;" horiz-adv-x="488" 
d="M436 455v-268q0 -34 -11 -68t-32 -61.5t-50.5 -44.5t-65.5 -17h-66q-39 0 -68.5 18t-50 46t-30.5 62t-10 65v476q0 40 13 75.5t37 61t57 40.5t73 15h32q40 0 72 -16t54.5 -42.5t34 -61.5t11.5 -72v-80h-120v80q0 29 -13.5 49.5t-42.5 22.5h-33q-31 -3 -43 -24.5
t-12 -47.5v-476q0 -31 15 -51.5t46 -20.5h22q32 0 46.5 21.5t14.5 50.5v148h-80v120h200zM313 972q0 -26 -16.5 -47.5t-42.5 -21.5h-24q-27 0 -42 22.5t-15 46.5t15 46.5t42 22.5h24q26 0 42.5 -21.5t16.5 -47.5z" />
    <glyph glyph-name="Hcircumflex" unicode="&#x124;" horiz-adv-x="494" 
d="M322 0v316h-150v-316h-120v850h120v-414h150v414h120v-850h-120zM70 902l132 150h99l122 -150h-120l-52 91l-61 -91h-120z" />
    <glyph glyph-name="hcircumflex" unicode="&#x125;" horiz-adv-x="494" 
d="M322 0v316h-150v-316h-120v850h120v-414h150v414h120v-850h-120zM72 903l132 150h99l122 -150h-120l-52 91l-61 -91h-120z" />
    <glyph glyph-name="Itilde" unicode="&#x128;" horiz-adv-x="222" 
d="M52 0v850h120v-850h-120zM59 956q-17 8 -27.5 7.5t-16.5 -5.5t-11 -16.5t-5 -28.5h-88q-3 40 11 72t39 50.5t58 21.5t69 -15l79 -38q32 -15 50 -1.5t18 41.5h90q2 -23 -5.5 -47t-22.5 -44.5t-37 -33.5t-49 -14h-23.5t-27.5 4.5t-40 15.5t-61 31z" />
    <glyph glyph-name="itilde" unicode="&#x129;" horiz-adv-x="304" 
d="M79 956q-17 8 -27.5 7.5t-16.5 -5.5t-11 -16.5t-5 -28.5h-88q-3 40 11 72t39 50.5t58 21.5t69 -15l79 -38q32 -15 50 -1.5t18 41.5h90q2 -23 -5.5 -47t-22.5 -44.5t-37 -33.5t-49 -14h-23.5t-27.5 4.5t-40 15.5t-61 31zM131 0v730h-99v120h219v-850h-120z" />
    <glyph glyph-name="Iogonek" unicode="&#x12e;" horiz-adv-x="224" 
d="M172 -188h-52q-23 0 -46 7.5t-41.5 22.5t-30 37.5t-11.5 52.5v25q0 32 17.5 59t43.5 44v790h120v-850h-52v-1q-20 0 -33.5 -10.5t-13.5 -31.5v-16q0 -23 14.5 -32.5t32.5 -9.5h52v-87z" />
    <glyph glyph-name="iogonek" unicode="&#x12f;" horiz-adv-x="224" 
d="M203 -188h-52q-23 0 -46 7.5t-41.5 22.5t-30 37.5t-11.5 52.5v25q0 22 8 41t22 35v817h120v-850h-21v-1q-20 0 -33.5 -10.5t-13.5 -31.5v-16q0 -23 14.5 -32.5t32.5 -9.5h52v-87z" />
    <glyph glyph-name="Idotaccent" unicode="&#x130;" horiz-adv-x="224" 
d="M52 0v850h120v-850h-120zM181 971q0 -26 -16.5 -47.5t-42.5 -21.5h-24q-27 0 -42 22.5t-15 46.5t15 46.5t42 22.5h24q26 0 42.5 -21.5t16.5 -47.5z" />
    <glyph glyph-name="dotlessi" unicode="&#x131;" horiz-adv-x="303" 
d="M131 0v730h-99v120h219v-850h-120z" />
    <glyph glyph-name="Jcircumflex" unicode="&#x134;" horiz-adv-x="329" 
d="M277 167q0 -40 -13 -71t-35.5 -52.5t-53 -32.5t-64.5 -11h-82v120h82q20 0 33 13.5t13 33.5v683h120v-683zM37 902l132 150h99l122 -150h-120l-52 91l-61 -91h-120z" />
    <glyph glyph-name="jcircumflex" unicode="&#x135;" horiz-adv-x="329" 
d="M37 902l132 150h99l122 -150h-120l-52 91l-61 -91h-120zM277 167q0 -40 -13 -71t-35.5 -52.5t-53 -32.5t-64.5 -11h-82v120h82q20 0 33 13.5t13 33.5v683h120v-683z" />
    <glyph glyph-name="Lacute" unicode="&#x139;" horiz-adv-x="353" 
d="M52 0v850h120v-730h155v-120h-275zM350 1043l-192 -140h-99l141 140h150z" />
    <glyph glyph-name="lacute" unicode="&#x13a;" horiz-adv-x="353" 
d="M350 1043l-192 -140h-99l141 140h150zM52 0v850h120v-730h155v-120h-275z" />
    <glyph glyph-name="Lcaron" unicode="&#x13d;" horiz-adv-x="353" 
d="M49 1053l61 -91l52 91h120l-122 -150h-99l-132 150h120zM52 0v850h120v-730h155v-120h-275z" />
    <glyph glyph-name="lcaron" unicode="&#x13e;" horiz-adv-x="353" 
d="M49 1053l61 -91l52 91h120l-122 -150h-99l-132 150h120zM52 0v850h120v-730h155v-120h-275z" />
    <glyph glyph-name="Lslash" unicode="&#x141;" horiz-adv-x="353" 
d="M52 0v256l-4 -4l-87 83l91 94v421h120v-296l53 55l87 -83l-140 -146v-260h155v-120h-275z" />
    <glyph glyph-name="lslash" unicode="&#x142;" horiz-adv-x="353" 
d="M52 0v256l-4 -4l-87 83l91 94v421h120v-296l53 55l87 -83l-140 -146v-260h155v-120h-275z" />
    <glyph glyph-name="Nacute" unicode="&#x143;" horiz-adv-x="523" 
d="M351 0l-179 509v-509h-120v850h120l179 -509v509h120v-850h-120zM486 1043l-192 -140h-99l141 140h150z" />
    <glyph glyph-name="nacute" unicode="&#x144;" horiz-adv-x="523" 
d="M486 1043l-192 -140h-99l141 140h150zM351 0l-179 509v-509h-120v850h120l179 -509v509h120v-850h-120z" />
    <glyph glyph-name="Ncaron" unicode="&#x147;" horiz-adv-x="523" 
d="M351 0l-179 509v-509h-120v850h120l179 -509v509h120v-850h-120zM201 1053l61 -91l52 91h120l-122 -150h-99l-132 150h120z" />
    <glyph glyph-name="ncaron" unicode="&#x148;" horiz-adv-x="523" 
d="M201 1053l61 -91l52 91h120l-122 -150h-99l-132 150h120zM351 0l-179 509v-509h-120v850h120l179 -509v509h120v-850h-120z" />
    <glyph glyph-name="Obreve" unicode="&#x14e;" 
d="M391 1027q0 -23 -8.5 -45t-23.5 -39.5t-36 -28.5t-46 -11h-47q-26 0 -46.5 11t-34.5 29t-21.5 40t-7.5 44h84q0 -20 10.5 -33.5t31.5 -13.5h16q23 0 32.5 14.5t9.5 32.5h87zM211 -4q-39 0 -68.5 17.5t-49.5 45t-30.5 61.5t-10.5 67v476q0 40 13 75.5t37 61t57 40.5t73 15
h47q40 0 72 -16t54.5 -42.5t34 -61.5t11.5 -72v-476q0 -35 -11 -69.5t-32 -61.5t-50.5 -43.5t-65.5 -16.5h-81zM331 187v476q0 29 -13.5 49.5t-42.5 22.5h-48q-31 -3 -43 -24.5t-12 -47.5v-476q0 -31 15 -51.5t46 -20.5h37q32 0 46.5 21.5t14.5 50.5z" />
    <glyph glyph-name="obreve" unicode="&#x14f;" 
d="M391 1027q0 -23 -8.5 -45t-23.5 -39.5t-36 -28.5t-46 -11h-47q-26 0 -46.5 11t-34.5 29t-21.5 40t-7.5 44h84q0 -20 10.5 -33.5t31.5 -13.5h16q23 0 32.5 14.5t9.5 32.5h87zM211 -4q-39 0 -68.5 17.5t-49.5 45t-30.5 61.5t-10.5 67v476q0 40 13 75.5t37 61t57 40.5t73 15
h47q40 0 72 -16t54.5 -42.5t34 -61.5t11.5 -72v-476q0 -35 -11 -69.5t-32 -61.5t-50.5 -43.5t-65.5 -16.5h-81zM331 187v476q0 29 -13.5 49.5t-42.5 22.5h-48q-31 -3 -43 -24.5t-12 -47.5v-476q0 -31 15 -51.5t46 -20.5h37q32 0 46.5 21.5t14.5 50.5z" />
    <glyph glyph-name="Ohungarumlaut" unicode="&#x150;" 
d="M403 1043l-192 -140h-99l141 140h150zM607 1043l-192 -140h-99l141 140h150zM211 -4q-39 0 -68.5 17.5t-49.5 45t-30.5 61.5t-10.5 67v476q0 40 13 75.5t37 61t57 40.5t73 15h47q40 0 72 -16t54.5 -42.5t34 -61.5t11.5 -72v-476q0 -35 -11 -69.5t-32 -61.5t-50.5 -43.5
t-65.5 -16.5h-81zM331 187v476q0 29 -13.5 49.5t-42.5 22.5h-48q-31 -3 -43 -24.5t-12 -47.5v-476q0 -31 15 -51.5t46 -20.5h37q32 0 46.5 21.5t14.5 50.5z" />
    <glyph glyph-name="ohungarumlaut" unicode="&#x151;" 
d="M403 1043l-192 -140h-99l141 140h150zM607 1043l-192 -140h-99l141 140h150zM211 -4q-39 0 -68.5 17.5t-49.5 45t-30.5 61.5t-10.5 67v476q0 40 13 75.5t37 61t57 40.5t73 15h47q40 0 72 -16t54.5 -42.5t34 -61.5t11.5 -72v-476q0 -35 -11 -69.5t-32 -61.5t-50.5 -43.5
t-65.5 -16.5h-81zM331 187v476q0 29 -13.5 49.5t-42.5 22.5h-48q-31 -3 -43 -24.5t-12 -47.5v-476q0 -31 15 -51.5t46 -20.5h37q32 0 46.5 21.5t14.5 50.5z" />
    <glyph glyph-name="OE" unicode="&#x152;" horiz-adv-x="676" 
d="M211 -4q-39 0 -68.5 17.5t-50 45t-30.5 61.5t-10 67v476q0 40 13 75.5t37 61t57 40.5t73 15h32q35 0 63 -12t49 -32q22 18 48.5 28.5t57.5 10.5h142v-120h-142q-20 0 -33 -13.5t-13 -33.5v-203h188v-120h-188v-193q0 -20 13 -33.5t33 -13.5h142v-120h-142q-62 0 -106 38
q-20 -19 -45 -30t-54 -12h-66zM260 735h-33q-16 0 -26.5 -6.5t-17 -16.5t-9 -23t-2.5 -26v-476q0 -31 15 -51.5t46 -20.5h22q31 0 45 20t16 46v482q0 29 -13.5 49.5t-42.5 22.5z" />
    <glyph glyph-name="oe" unicode="&#x153;" horiz-adv-x="676" 
d="M316 0v1q-10 -2 -19 -3.5t-20 -1.5h-66q-39 0 -68.5 17.5t-49.5 45t-30.5 61.5t-10.5 67v476q0 40 13 75.5t37 61t57 40.5t73 15h32q26 0 52 -8v3h308v-120h-188v-60v-7v-182h188v-120h-188v-174v-7v-60h188v-120h-308zM316 181v482q0 29 -13.5 49.5t-42.5 22.5h-33
q-31 -3 -43 -24.5t-12 -47.5v-476q0 -31 15 -51.5t46 -20.5h22q31 0 45 20t16 46z" />
    <glyph glyph-name="Racute" unicode="&#x154;" horiz-adv-x="480" 
d="M52 0v850h195q46 0 80 -15.5t56.5 -42t33.5 -61.5t11 -73v-178q0 -24 -17 -41l-54 -52l103 -387h-120l-82 292l-86 -83v-209h-120zM308 503v155q0 31 -13 51.5t-48 20.5h-75v-356zM417 1042l-192 -140h-99l141 140h150z" />
    <glyph glyph-name="racute" unicode="&#x155;" horiz-adv-x="480" 
d="M417 1042l-192 -140h-99l141 140h150zM330 0l-76 290h-7h-75v-290h-120v850h195q42 0 75.5 -15.5t57 -42t36 -61.5t12.5 -73v-176q0 -45 -17 -84t-48 -66l87 -332h-120zM308 482v176q0 31 -14.5 51.5t-46.5 20.5h-75v-320h75q32 0 46.5 20.5t14.5 51.5z" />
    <glyph glyph-name="Rcaron" unicode="&#x158;" horiz-adv-x="480" 
d="M52 0v850h195q46 0 80 -15.5t56.5 -42t33.5 -61.5t11 -73v-178q0 -24 -17 -41l-54 -52l103 -387h-120l-82 292l-86 -83v-209h-120zM308 503v155q0 31 -13 51.5t-48 20.5h-75v-356zM165 1053l61 -91l52 91h120l-122 -150h-99l-132 150h120z" />
    <glyph glyph-name="rcaron" unicode="&#x159;" horiz-adv-x="480" 
d="M165 1053l61 -91l52 91h120l-122 -150h-99l-132 150h120zM330 0l-76 290h-7h-75v-290h-120v850h195q42 0 75.5 -15.5t57 -42t36 -61.5t12.5 -73v-176q0 -45 -17 -84t-48 -66l87 -332h-120zM308 482v176q0 31 -14.5 51.5t-46.5 20.5h-75v-320h75q32 0 46.5 20.5t14.5 51.5
z" />
    <glyph glyph-name="Sacute" unicode="&#x15a;" horiz-adv-x="488" 
d="M316 298l-240 183q-24 18 -24 48v134q0 40 13 75.5t37 61t57 40.5t73 15h32q41 0 73 -16t54 -42.5t33.5 -61.5t11.5 -72v-80h-120v80q0 29 -13.5 49.5t-42.5 22.5h-33q-16 0 -26.5 -6.5t-17 -16.5t-9 -23t-2.5 -26v-104l240 -183q24 -19 24 -48v-141q0 -35 -11 -69
t-32 -60.5t-50.5 -43.5t-65.5 -18h-66q-39 0 -68.5 17.5t-50 45t-30.5 61.5t-10 67v80h120v-80q0 -31 15 -51.5t46 -20.5h22q32 0 46.5 21.5t14.5 50.5v111zM447 1042l-192 -140h-99l141 140h150z" />
    <glyph glyph-name="sacute" unicode="&#x15b;" horiz-adv-x="488" 
d="M447 1042l-192 -140h-99l141 140h150zM436 270v-83q0 -35 -11 -69.5t-32 -61.5t-50.5 -43.5t-65.5 -16.5h-66q-39 0 -68.5 17.5t-49.5 45t-30.5 61.5t-10.5 67v74h120v-74q0 -31 15 -51.5t46 -20.5h22q32 0 46.5 21.5t14.5 50.5v75q-2 33 -31 60t-82 56q-27 15 -54 32
t-48.5 40t-35 52.5t-13.5 69.5v91q0 40 13 75.5t37 61t57 40.5t73 15h32q40 0 72 -16t54.5 -42.5t34 -61.5t11.5 -72v-80h-120v80q0 29 -13.5 49.5t-42.5 22.5h-33q-31 -3 -43 -24.5t-12 -47.5v-69q0 -25 8 -41.5t21.5 -29t30.5 -22t34 -19.5q28 -17 58 -36t54.5 -44.5
t41 -57.5t16.5 -74z" />
    <glyph glyph-name="Scircumflex" unicode="&#x15c;" horiz-adv-x="488" 
d="M316 298l-240 183q-24 18 -24 48v134q0 40 13 75.5t37 61t57 40.5t73 15h32q41 0 73 -16t54 -42.5t33.5 -61.5t11.5 -72v-80h-120v80q0 29 -13.5 49.5t-42.5 22.5h-33q-16 0 -26.5 -6.5t-17 -16.5t-9 -23t-2.5 -26v-104l240 -183q24 -19 24 -48v-141q0 -35 -11 -69
t-32 -60.5t-50.5 -43.5t-65.5 -18h-66q-39 0 -68.5 17.5t-50 45t-30.5 61.5t-10 67v80h120v-80q0 -31 15 -51.5t46 -20.5h22q32 0 46.5 21.5t14.5 50.5v111zM67 902l132 150h99l122 -150h-120l-52 91l-61 -91h-120z" />
    <glyph glyph-name="scircumflex" unicode="&#x15d;" horiz-adv-x="488" 
d="M436 270v-83q0 -35 -11 -69.5t-32 -61.5t-50.5 -43.5t-65.5 -16.5h-66q-39 0 -68.5 17.5t-49.5 45t-30.5 61.5t-10.5 67v74h120v-74q0 -31 15 -51.5t46 -20.5h22q32 0 46.5 21.5t14.5 50.5v75q-2 33 -31 60t-82 56q-27 15 -54 32t-48.5 40t-35 52.5t-13.5 69.5v91
q0 40 13 75.5t37 61t57 40.5t73 15h32q40 0 72 -16t54.5 -42.5t34 -61.5t11.5 -72v-80h-120v80q0 29 -13.5 49.5t-42.5 22.5h-33q-31 -3 -43 -24.5t-12 -47.5v-69q0 -25 8 -41.5t21.5 -29t30.5 -22t34 -19.5q28 -17 58 -36t54.5 -44.5t41 -57.5t16.5 -74zM67 902l132 150h99
l122 -150h-120l-52 91l-61 -91h-120z" />
    <glyph glyph-name="Scedilla" unicode="&#x15e;" horiz-adv-x="488" 
d="M204 -97v93q-38 1 -66 19t-47.5 45.5t-29 60.5t-9.5 66v80h120v-80q0 -31 15 -51.5t46 -20.5h22q32 0 46.5 21.5t14.5 50.5v111l-240 183q-24 18 -24 48v134q0 40 13 75.5t37 61t57 40.5t73 15h32q41 0 73 -16t54 -42.5t33.5 -61.5t11.5 -72v-80h-120v80q0 29 -13.5 49.5
t-42.5 22.5h-33q-16 0 -26.5 -6.5t-17 -16.5t-9 -23t-2.5 -26v-104l240 -183q24 -19 24 -48v-141q0 -35 -11 -69t-32 -60.5t-50.5 -43.5t-65.5 -18h-4v-26q54 0 80.5 -28.5t26.5 -67.5v-6q0 -24 -10 -43t-26.5 -32.5t-38 -20.5t-43.5 -7h-74v69h74q20 0 36.5 8t16.5 26v2
q0 14 -12 23.5t-32 9.5h-67z" />
    <glyph glyph-name="scedilla" unicode="&#x15f;" horiz-adv-x="488" 
d="M204 -97v93q-37 1 -65.5 19t-47.5 45.5t-29 60.5t-10 66v74h120v-74q0 -31 15 -51.5t46 -20.5h22q32 0 46.5 21.5t14.5 50.5v75q-2 33 -31 60t-82 56q-27 15 -54 32t-48.5 40t-35 52.5t-13.5 69.5v91q0 40 13 75.5t37 61t57 40.5t73 15h32q40 0 72 -16t54.5 -42.5
t34 -61.5t11.5 -72v-80h-120v80q0 29 -13.5 49.5t-42.5 22.5h-33q-31 -3 -43 -24.5t-12 -47.5v-69q0 -25 8 -41.5t21.5 -29t30.5 -22t34 -19.5q28 -17 58 -36t54.5 -44.5t41 -57.5t16.5 -74v-83q0 -35 -11 -69.5t-32 -61.5t-50.5 -43.5t-65.5 -16.5h-4v-26q54 0 80.5 -28.5
t26.5 -67.5v-6q0 -24 -10 -43t-26.5 -32.5t-38 -20.5t-43.5 -7h-74v69h74q20 0 36.5 8t16.5 26v2q0 14 -12 23.5t-32 9.5h-67z" />
    <glyph glyph-name="Scaron" unicode="&#x160;" horiz-adv-x="488" 
d="M316 298l-240 183q-24 18 -24 48v134q0 40 13 75.5t37 61t57 40.5t73 15h32q41 0 73 -16t54 -42.5t33.5 -61.5t11.5 -72v-80h-120v80q0 29 -13.5 49.5t-42.5 22.5h-33q-16 0 -26.5 -6.5t-17 -16.5t-9 -23t-2.5 -26v-104l240 -183q24 -19 24 -48v-141q0 -35 -11 -69
t-32 -60.5t-50.5 -43.5t-65.5 -18h-66q-39 0 -68.5 17.5t-50 45t-30.5 61.5t-10 67v80h120v-80q0 -31 15 -51.5t46 -20.5h22q32 0 46.5 21.5t14.5 50.5v111zM186 1053l61 -91l52 91h120l-122 -150h-99l-132 150h120z" />
    <glyph glyph-name="scaron" unicode="&#x161;" horiz-adv-x="488" 
d="M436 270v-83q0 -35 -11 -69.5t-32 -61.5t-50.5 -43.5t-65.5 -16.5h-66q-39 0 -68.5 17.5t-49.5 45t-30.5 61.5t-10.5 67v74h120v-74q0 -31 15 -51.5t46 -20.5h22q32 0 46.5 21.5t14.5 50.5v75q-2 33 -31 60t-82 56q-27 15 -54 32t-48.5 40t-35 52.5t-13.5 69.5v91
q0 40 13 75.5t37 61t57 40.5t73 15h32q40 0 72 -16t54.5 -42.5t34 -61.5t11.5 -72v-80h-120v80q0 29 -13.5 49.5t-42.5 22.5h-33q-31 -3 -43 -24.5t-12 -47.5v-69q0 -25 8 -41.5t21.5 -29t30.5 -22t34 -19.5q28 -17 58 -36t54.5 -44.5t41 -57.5t16.5 -74zM191 1053l61 -91
l52 91h120l-122 -150h-99l-132 150h120z" />
    <glyph glyph-name="Tcaron" unicode="&#x164;" horiz-adv-x="479" 
d="M179 0v730h-141v120h403v-120h-142v-730h-120zM169 1052l61 -91l52 91h120l-122 -150h-99l-132 150h120z" />
    <glyph glyph-name="tcaron" unicode="&#x165;" horiz-adv-x="479" 
d="M169 1052l61 -91l52 91h120l-122 -150h-99l-132 150h120zM179 0v730h-141v120h403v-120h-142v-730h-120z" />
    <glyph glyph-name="Utilde" unicode="&#x168;" 
d="M187 956q-17 8 -27.5 7.5t-16.5 -5.5t-11 -16.5t-5 -28.5h-88q-3 40 11 72t39 50.5t58 21.5t69 -15l79 -38q32 -15 50 -1.5t18 41.5h90q2 -23 -5.5 -47t-22.5 -44.5t-37 -33.5t-49 -14h-23.5t-27.5 4.5t-40 15.5t-61 31zM172 850v-663q0 -31 15 -51.5t46 -20.5h37
q32 0 46.5 21.5t14.5 50.5v663h120v-663q0 -37 -11.5 -71.5t-32 -61t-50 -42.5t-65.5 -16h-81q-38 0 -67.5 16.5t-50 43.5t-31 61t-10.5 70v663h120z" />
    <glyph glyph-name="utilde" unicode="&#x169;" 
d="M187 956q-17 8 -27.5 7.5t-16.5 -5.5t-11 -16.5t-5 -28.5h-88q-3 40 11 72t39 50.5t58 21.5t69 -15l79 -38q32 -15 50 -1.5t18 41.5h90q2 -23 -5.5 -47t-22.5 -44.5t-37 -33.5t-49 -14h-23.5t-27.5 4.5t-40 15.5t-61 31zM172 850v-663q0 -31 15 -51.5t46 -20.5h37
q32 0 46.5 21.5t14.5 50.5v663h120v-663q0 -37 -11.5 -71.5t-32 -61t-50 -42.5t-65.5 -16h-81q-38 0 -67.5 16.5t-50 43.5t-31 61t-10.5 70v663h120z" />
    <glyph glyph-name="Ubreve" unicode="&#x16c;" 
d="M387 1027q0 -23 -8.5 -45t-23.5 -39.5t-36 -28.5t-46 -11h-47q-26 0 -46.5 11t-34.5 29t-21.5 40t-7.5 44h84q0 -20 10.5 -33.5t31.5 -13.5h16q23 0 32.5 14.5t9.5 32.5h87zM172 850v-663q0 -31 15 -51.5t46 -20.5h37q32 0 46.5 21.5t14.5 50.5v663h120v-663
q0 -37 -11.5 -71.5t-32 -61t-50 -42.5t-65.5 -16h-81q-38 0 -67.5 16.5t-50 43.5t-31 61t-10.5 70v663h120z" />
    <glyph glyph-name="ubreve" unicode="&#x16d;" 
d="M397 1027q0 -23 -8.5 -45t-23.5 -39.5t-36 -28.5t-46 -11h-47q-26 0 -46.5 11t-34.5 29t-21.5 40t-7.5 44h84q0 -20 10.5 -33.5t31.5 -13.5h16q23 0 32.5 14.5t9.5 32.5h87zM172 850v-663q0 -31 15 -51.5t46 -20.5h37q32 0 46.5 21.5t14.5 50.5v663h120v-663
q0 -37 -11.5 -71.5t-32 -61t-50 -42.5t-65.5 -16h-81q-38 0 -67.5 16.5t-50 43.5t-31 61t-10.5 70v663h120z" />
    <glyph glyph-name="Uring" unicode="&#x16e;" 
d="M372 1014q0 -21 -7 -40.5t-19.5 -35.5t-30 -25.5t-38.5 -9.5h-39q-22 0 -39 10t-29 26t-18 35.5t-6 39.5q0 19 6 39t18 36t29 26t39 10h39q21 0 38.5 -9.5t30 -25.5t19.5 -35.5t7 -40.5zM300 1014q0 17 -8.5 29.5t-27.5 12.5h-13q-17 0 -26 -12t-9 -30t9 -30t26 -12h13
q19 0 27.5 12.5t8.5 29.5zM172 850v-663q0 -31 15 -51.5t46 -20.5h37q32 0 46.5 21.5t14.5 50.5v663h120v-663q0 -37 -11.5 -71.5t-32 -61t-50 -42.5t-65.5 -16h-81q-38 0 -67.5 16.5t-50 43.5t-31 61t-10.5 70v663h120z" />
    <glyph glyph-name="uring" unicode="&#x16f;" 
d="M372 1014q0 -21 -7 -40.5t-19.5 -35.5t-30 -25.5t-38.5 -9.5h-39q-22 0 -39 10t-29 26t-18 35.5t-6 39.5q0 19 6 39t18 36t29 26t39 10h39q21 0 38.5 -9.5t30 -25.5t19.5 -35.5t7 -40.5zM300 1014q0 17 -8.5 29.5t-27.5 12.5h-13q-17 0 -26 -12t-9 -30t9 -30t26 -12h13
q19 0 27.5 12.5t8.5 29.5zM172 850v-663q0 -31 15 -51.5t46 -20.5h37q32 0 46.5 21.5t14.5 50.5v663h120v-663q0 -37 -11.5 -71.5t-32 -61t-50 -42.5t-65.5 -16h-81q-38 0 -67.5 16.5t-50 43.5t-31 61t-10.5 70v663h120z" />
    <glyph glyph-name="Uhungarumlaut" unicode="&#x170;" 
d="M381 1043l-192 -140h-99l141 140h150zM585 1043l-192 -140h-99l141 140h150zM172 850v-663q0 -31 15 -51.5t46 -20.5h37q32 0 46.5 21.5t14.5 50.5v663h120v-663q0 -37 -11.5 -71.5t-32 -61t-50 -42.5t-65.5 -16h-81q-38 0 -67.5 16.5t-50 43.5t-31 61t-10.5 70v663h120z
" />
    <glyph glyph-name="uhungarumlaut" unicode="&#x171;" 
d="M381 1043l-192 -140h-99l141 140h150zM585 1043l-192 -140h-99l141 140h150zM172 850v-663q0 -31 15 -51.5t46 -20.5h37q32 0 46.5 21.5t14.5 50.5v663h120v-663q0 -37 -11.5 -71.5t-32 -61t-50 -42.5t-65.5 -16h-81q-38 0 -67.5 16.5t-50 43.5t-31 61t-10.5 70v663h120z
" />
    <glyph glyph-name="Uogonek" unicode="&#x172;" 
d="M356 -188h-52q-23 0 -46 7.5t-41.5 22.5t-30 37.5t-11.5 52.5v25q0 21 8 42q-32 6 -56 24t-41 43.5t-25.5 57t-8.5 63.5v663h120v-663q0 -31 15 -51.5t46 -20.5h37q32 0 46.5 21.5t14.5 50.5v663h120v-663q0 -36 -11 -70t-30.5 -60t-48 -43t-62.5 -18q-14 0 -28 -11.5
t-14 -27.5v-16q0 -23 14.5 -32.5t32.5 -9.5h52v-87z" />
    <glyph glyph-name="uogonek" unicode="&#x173;" 
d="M356 -188h-52q-23 0 -46 7.5t-41.5 22.5t-30 37.5t-11.5 52.5v25q0 21 8 42q-32 6 -56 24t-41 43.5t-25.5 57t-8.5 63.5v663h120v-663q0 -31 15 -51.5t46 -20.5h37q32 0 46.5 21.5t14.5 50.5v663h120v-663q0 -36 -11 -70t-30.5 -60t-48 -43t-62.5 -18q-14 0 -28 -11.5
t-14 -27.5v-16q0 -23 14.5 -32.5t32.5 -9.5h52v-87z" />
    <glyph glyph-name="Wcircumflex" unicode="&#x174;" horiz-adv-x="661" 
d="M243 0h-145l-77 850h116l56 -599l98 599h79l98 -599l56 599h116l-77 -850h-145l-88 428zM151 903l132 150h99l122 -150h-120l-52 91l-61 -91h-120z" />
    <glyph glyph-name="wcircumflex" unicode="&#x175;" horiz-adv-x="664" 
d="M151 903l132 150h99l122 -150h-120l-52 91l-61 -91h-120zM243 0h-145l-77 850h116l56 -599l98 599h79l98 -599l56 599h116l-77 -850h-145l-88 428z" />
    <glyph glyph-name="Ycircumflex" unicode="&#x176;" horiz-adv-x="510" 
d="M75 903l132 150h99l122 -150h-120l-52 91l-61 -91h-120zM313 270v-270h-120v270l-179 580h120l119 -386l119 386h120z" />
    <glyph glyph-name="ycircumflex" unicode="&#x177;" horiz-adv-x="504" 
d="M75 903l132 150h99l122 -150h-120l-52 91l-61 -91h-120zM313 270v-270h-120v270l-179 580h120l119 -386l119 386h120z" />
    <glyph glyph-name="Ydieresis" unicode="&#x178;" horiz-adv-x="494" 
d="M200 972q0 -26 -16.5 -47.5t-42.5 -21.5h-24q-27 0 -42 22.5t-15 46.5t15 46.5t42 22.5h24q26 0 42.5 -21.5t16.5 -47.5zM430 972q0 -26 -16.5 -47.5t-42.5 -21.5h-24q-27 0 -42 22.5t-15 46.5t15 46.5t42 22.5h24q26 0 42.5 -21.5t16.5 -47.5zM313 270v-270h-120v270
l-179 580h120l119 -386l119 386h120z" />
    <glyph glyph-name="Zacute" unicode="&#x179;" horiz-adv-x="454" 
d="M402 0h-350v150l234 580h-234v120h350v-150l-234 -580h234v-120zM471 1042l-192 -140h-99l141 140h150z" />
    <glyph glyph-name="zacute" unicode="&#x17a;" horiz-adv-x="454" 
d="M471 1042l-192 -140h-99l141 140h150zM402 0h-350v150l234 580h-234v120h350v-150l-234 -580h234v-120z" />
    <glyph glyph-name="Zdotaccent" unicode="&#x17b;" horiz-adv-x="454" 
d="M402 0h-350v150l234 580h-234v120h350v-150l-234 -580h234v-120zM322 972q0 -26 -16.5 -47.5t-42.5 -21.5h-24q-27 0 -42 22.5t-15 46.5t15 46.5t42 22.5h24q26 0 42.5 -21.5t16.5 -47.5z" />
    <glyph glyph-name="zdotaccent" unicode="&#x17c;" horiz-adv-x="454" 
d="M322 972q0 -26 -16.5 -47.5t-42.5 -21.5h-24q-27 0 -42 22.5t-15 46.5t15 46.5t42 22.5h24q26 0 42.5 -21.5t16.5 -47.5zM402 0h-350v150l234 580h-234v120h350v-150l-234 -580h234v-120z" />
    <glyph glyph-name="Zcaron" unicode="&#x17d;" horiz-adv-x="454" 
d="M402 0h-350v150l234 580h-234v120h350v-150l-234 -580h234v-120zM197 1053l61 -91l52 91h120l-122 -150h-99l-132 150h120z" />
    <glyph glyph-name="zcaron" unicode="&#x17e;" horiz-adv-x="454" 
d="M402 0h-350v150l234 580h-234v120h350v-150l-234 -580h234v-120zM194 1053l61 -91l52 91h120l-122 -150h-99l-132 150h120z" />
    <glyph glyph-name="circumflex" unicode="&#x2c6;" horiz-adv-x="433" 
d="M44 931l132 150h99l122 -150h-120l-52 91l-61 -91h-120z" />
    <glyph glyph-name="caron" unicode="&#x2c7;" horiz-adv-x="427" 
d="M164 1081l61 -91l52 91h120l-122 -150h-99l-132 150h120z" />
    <glyph glyph-name="breve" unicode="&#x2d8;" horiz-adv-x="345" 
d="M323 1022q0 -23 -8.5 -45t-23.5 -39.5t-36 -28.5t-46 -11h-47q-26 0 -46.5 11t-34.5 29t-21.5 40t-7.5 44h84q0 -20 10.5 -33.5t31.5 -13.5h16q23 0 32.5 14.5t9.5 32.5h87z" />
    <glyph glyph-name="dotaccent" unicode="&#x2d9;" horiz-adv-x="221" 
d="M192 967q0 -26 -16.5 -47.5t-42.5 -21.5h-24q-27 0 -42 22.5t-15 46.5t15 46.5t42 22.5h24q26 0 42.5 -21.5t16.5 -47.5z" />
    <glyph glyph-name="ring" unicode="&#x2da;" horiz-adv-x="316" 
d="M278 1009q0 -21 -7 -40.5t-19.5 -35.5t-30 -25.5t-38.5 -9.5h-39q-22 0 -39 10t-29 26t-18 35.5t-6 39.5q0 19 6 39t18 36t29 26t39 10h39q21 0 38.5 -9.5t30 -25.5t19.5 -35.5t7 -40.5zM206 1009q0 17 -8.5 29.5t-27.5 12.5h-13q-17 0 -26 -12t-9 -30t9 -30t26 -12h13
q19 0 27.5 12.5t8.5 29.5z" />
    <glyph glyph-name="ogonek" unicode="&#x2db;" horiz-adv-x="269" 
d="M233 -188h-52q-23 0 -46 7.5t-41.5 22.5t-30 37.5t-11.5 52.5v25q0 26 12 49t30.5 40t41.5 27t45 10v-84q-20 0 -33.5 -10.5t-13.5 -31.5v-16q0 -23 14.5 -32.5t32.5 -9.5h52v-87z" />
    <glyph glyph-name="tilde" unicode="&#x2dc;" horiz-adv-x="492" 
d="M199 961q-17 8 -27.5 7.5t-16.5 -5.5t-11 -16.5t-5 -28.5h-88q-3 40 11 72t39 50.5t58 21.5t69 -15l79 -38q32 -15 50 -1.5t18 41.5h90q2 -23 -5.5 -47t-22.5 -44.5t-37 -33.5t-49 -14h-23.5t-27.5 4.5t-40 15.5t-61 31z" />
    <glyph glyph-name="hungarumlaut" unicode="&#x2dd;" horiz-adv-x="557" 
d="M339 1071l-192 -140h-99l141 140h150zM543 1071l-192 -140h-99l141 140h150z" />
    <glyph glyph-name="Wgrave" unicode="&#x1e80;" horiz-adv-x="661" 
d="M243 0h-145l-77 850h116l56 -599l98 599h79l98 -599l56 599h116l-77 -850h-145l-88 428zM232 1043l141 -140h-99l-192 140h150z" />
    <glyph glyph-name="wgrave" unicode="&#x1e81;" horiz-adv-x="664" 
d="M232 1043l141 -140h-99l-192 140h150zM243 0h-145l-77 850h116l56 -599l98 599h79l98 -599l56 599h116l-77 -850h-145l-88 428z" />
    <glyph glyph-name="Wacute" unicode="&#x1e82;" horiz-adv-x="661" 
d="M243 0h-145l-77 850h116l56 -599l98 599h79l98 -599l56 599h116l-77 -850h-145l-88 428zM587 1043l-192 -140h-99l141 140h150z" />
    <glyph glyph-name="wacute" unicode="&#x1e83;" horiz-adv-x="664" 
d="M243 0h-145l-77 850h116l56 -599l98 599h79l98 -599l56 599h116l-77 -850h-145l-88 428zM578 1043l-192 -140h-99l141 140h150z" />
    <glyph glyph-name="Wdieresis" unicode="&#x1e84;" horiz-adv-x="661" 
d="M243 0h-145l-77 850h116l56 -599l98 599h79l98 -599l56 599h116l-77 -850h-145l-88 428zM286 973q0 -26 -16.5 -47.5t-42.5 -21.5h-24q-27 0 -42 22.5t-15 46.5t15 46.5t42 22.5h24q26 0 42.5 -21.5t16.5 -47.5zM516 973q0 -26 -16.5 -47.5t-42.5 -21.5h-24
q-27 0 -42 22.5t-15 46.5t15 46.5t42 22.5h24q26 0 42.5 -21.5t16.5 -47.5z" />
    <glyph glyph-name="wdieresis" unicode="&#x1e85;" horiz-adv-x="664" 
d="M243 0h-145l-77 850h116l56 -599l98 599h79l98 -599l56 599h116l-77 -850h-145l-88 428zM287 972q0 -26 -16.5 -47.5t-42.5 -21.5h-24q-27 0 -42 22.5t-15 46.5t15 46.5t42 22.5h24q26 0 42.5 -21.5t16.5 -47.5zM517 972q0 -26 -16.5 -47.5t-42.5 -21.5h-24
q-27 0 -42 22.5t-15 46.5t15 46.5t42 22.5h24q26 0 42.5 -21.5t16.5 -47.5z" />
    <glyph glyph-name="guilsinglleft" unicode="&#x2039;" horiz-adv-x="498" 
d="M52 490l381 340v-170l-269 -240l269 -240v-170l-381 340v140z" />
    <glyph glyph-name="guilsinglright" unicode="&#x203a;" horiz-adv-x="488" 
d="M433 350l-381 -340v170l269 240l-269 240v170l381 -340v-140z" />
    <glyph glyph-name="Euro" unicode="&#x20ac;" horiz-adv-x="594" 
d="M46 396h36v70h-36v120h36v9q0 63 16.5 110t44.5 78.5t63.5 47t74.5 15.5h86q36 0 68.5 -16.5t57 -43.5t39 -61.5t14.5 -69.5h-120q0 14 -6.5 27t-18 23t-26 16t-30.5 6h-42q-15 0 -33 -4t-33 -17.5t-25 -40t-10 -70.5v-9h245v-120h-245v-70h245v-120h-245v-19
q0 -44 10 -70.5t25 -40t33 -17.5t33 -4h42q16 0 30.5 6t26 16t18 23t6.5 27h120q0 -35 -14.5 -69.5t-39 -61.5t-57 -43.5t-68.5 -16.5h-86q-39 0 -74.5 15.5t-63.5 47t-44.5 78.5t-16.5 110v19h-36v120z" />
    <glyph glyph-name="E.salt" unicode="&#xe484;" horiz-adv-x="489" 
d="M52 162v526q0 34 13 64.5t35.5 53.5t52.5 36t65 13h52q34 0 64.5 -13t53.5 -36t36 -53.5t13 -64.5h-120q0 20 -13.5 33.5t-33.5 13.5h-52q-20 0 -33 -13.5t-13 -33.5v-256h218v-120h-218v-150q0 -20 13 -33.5t33 -13.5h52q20 0 33.5 13.5t13.5 33.5h120q0 -35 -13 -65
t-36 -53t-53.5 -36t-64.5 -13h-52q-35 0 -65 13t-52.5 36t-35.5 53t-13 65z" />
    <glyph glyph-name="G.salt" unicode="&#xe486;" horiz-adv-x="488" 
d="M52 162v426q0 34 13 64.5t35.5 53.5t52.5 36t65 13h52q34 0 64.5 -13t53 -36t35.5 -53.5t13 -64.5v-94h-120v94q0 20 -13 33.5t-33 13.5h-52q-20 0 -33 -13.5t-13 -33.5v-426q0 -20 13 -33.5t33 -13.5h52q20 0 33 13.5t13 33.5v151h120v-151q0 -35 -13 -65t-35.5 -53
t-53 -36t-64.5 -13h-52q-35 0 -65 13t-52.5 36t-35.5 53t-13 65zM236 305v120h200v-120h-200z" />
    <glyph glyph-name="M.salt" unicode="&#xe48c;" horiz-adv-x="667" 
d="M495 0v731h-41q-20 0 -30 -5.5t-15 -12.5q-6 -8 -10 -19.5t-5 -26.5v-7v-660h-120v659v1v6q-1 16 -5 27.5t-10 19.5q-5 7 -15.5 12.5t-29.5 5.5h-42v-731h-120v851h162q72 0 120 -43q46 43 120 43h161v-851h-120z" />
    <glyph glyph-name="S.salt" unicode="&#xe492;" horiz-adv-x="490" 
d="M52 175v75h120l1 -75q0 -33 18.5 -49t48.5 -16h15q32 0 47.5 20t15.5 49v66l-242 283q-24 18 -24 48v95q0 88 55 141q27 26 60 37t68 11h22q29 0 60.5 -9t58.5 -32q29 -23 45.5 -58.5t16.5 -80.5v-80h-120v80q0 27 -18 44t-44 17h-20q-32 0 -48 -20.5t-16 -49.5v-65
l242 -283q24 -19 24 -48v-96q0 -41 -13 -75.5t-37 -60t-57.5 -39.5t-74.5 -14h-15q-41 0 -75.5 14t-60 38.5t-39.5 58.5t-14 74z" />
    <glyph glyph-name="W.salt" unicode="&#xe496;" horiz-adv-x="601" 
d="M122 850l56 -628l77 628h100l77 -628l56 628h112l-77 -850h-150l-68 424l-68 -424h-150l-77 850h112z" />
    <glyph glyph-name="Y.salt" unicode="&#xe498;" horiz-adv-x="488" 
d="M185 0v238l-133 160v452h120v-403l61 -72h22l61 72v403h120v-452l-131 -158v-240h-120z" />
    <glyph glyph-name="B.1" horiz-adv-x="457" 
d="M52 0v850h195q46 0 80 -15.5t56.5 -42t33.5 -61.5t11 -73v-88q0 -24 -17 -41l-67 -71q21 -13 35 -30q25 -27 37 -61.5t12 -72.5v-102q0 -41 -13.5 -76t-37.5 -60.5t-57 -40.5t-73 -15h-195zM308 593v65q0 31 -13 51.5t-48 20.5h-75v-280zM247 120q32 0 46.5 21.5
t14.5 50.5v102q0 19 -5 32.5t-13 21.5q-6 6 -14.5 10.5t-20.5 6.5l-83 -86v-159h75zM105 59q0 -8 10 -8h131q28 0 52 10.5t41.5 30t27.5 46t10 58.5v106q0 27 -8.5 49t-23 39t-33 29.5t-38.5 21.5l-12 3l112 122q3 3 3 7v68q0 74 -34.5 115.5t-100.5 41.5h-127
q-10 0 -10 -10v-729zM358 196q0 -29 -8.5 -52t-23.5 -40t-35.5 -26t-44.5 -9h-122v227l124 135l18 -8q39 -16 65.5 -45t26.5 -76v-106zM124 324v455h118q56 0 86 -35t30 -103v-65z" />
    <glyph glyph-name="L.1" horiz-adv-x="382" 
d="M52 0v850h120v-730h185v-120h-305zM104 62q0 -8 10 -8h188v18h-179v719h-19v-729z" />
    <glyph glyph-name="O_O.1" horiz-adv-x="754" 
d="M227 735q-16 0 -26.5 -6.5t-17 -16.5t-9 -23t-2.5 -26v-476q0 -31 15 -51.5t46 -20.5h22q32 0 46.5 21.5t14.5 50.5v476q0 37 11.5 71.5t32 61t50 42.5t65.5 16h66q39 0 68.5 -16.5t50 -43.5t30.5 -61t10 -70v-476q0 -40 -13.5 -75t-37 -61t-56.5 -41t-72 -15h-39
q-35 0 -66 14q22 21 37.5 48t22.5 59q2 0 10.5 -0.5t12.5 -0.5h26q31 3 43 24.5t12 47.5v476q0 31 -15 51.5t-46 20.5h-22q-32 0 -46.5 -21.5t-14.5 -50.5v-476q0 -37 -11 -71.5t-31.5 -61t-50 -42.5t-66.5 -16h-66q-37 0 -66.5 16.5t-50 43.5t-31.5 61t-11 70v476
q0 40 13 75.5t37 61t57 40.5t73 15h39q35 0 66 -14q-22 -21 -37.5 -48t-22.5 -59q-4 0 -21 0.5t-29 0.5zM104 183q0 -24 7.5 -47.5t22.5 -42t37.5 -30.5t52.5 -12h41q26 0 48.5 10t39 27.5t25.5 41.5t9 53v459q0 74 28.5 107.5t77.5 33.5h19q57 0 87 -35t30 -103v-56v-397
q0 -29 -9 -52t-24 -40t-35.5 -26t-44.5 -9h-13l-7 -18h20q28 0 52 10.5t42 30t28 46t10 58.5v397v56q0 74 -35 115.5t-101 41.5h-19q-59 0 -92 -40t-33 -120v-459q0 -51 -30 -82t-73 -31h-41q-25 0 -44 10t-31.5 25.5t-19 36t-6.5 41.5v458q0 74 29.5 107.5t78.5 33.5h19
l8 19h-27q-60 0 -93.5 -40t-33.5 -120v-458z" />
    <glyph glyph-name="P.1" horiz-adv-x="451" 
d="M52 0v850h195q46 0 80 -15.5t56.5 -42t33.5 -61.5t11 -73v-178q0 -24 -17 -41l-239 -230v-209h-120zM308 503v155q0 31 -13 51.5t-48 20.5h-75v-356zM374 471q3 3 3 7v163q0 74 -34.5 115.5t-100.5 41.5h-127q-10 0 -10 -10v-737h19v18v162zM124 259v520h118q56 0 86 -35
t30 -103v-160z" />
    <glyph glyph-name="S.1" horiz-adv-x="467" 
d="M316 249l-240 153q-24 18 -24 48v213q0 40 13 75.5t37 61t57 40.5t73 15h32q41 0 73 -16t54 -42.5t33.5 -61.5t11.5 -72v-135h-120v135q0 29 -13.5 49.5t-42.5 22.5h-33q-16 0 -26.5 -6.5t-17 -16.5t-9 -23t-2.5 -26v-183l240 -153q24 -19 24 -48v-92q0 -35 -11 -69
t-32 -60.5t-50.5 -43.5t-65.5 -18h-66q-39 0 -68.5 17.5t-50 45t-30.5 61.5t-10 67v80h120v-80q0 -31 15 -51.5t46 -20.5h22q32 0 46.5 21.5t14.5 50.5v62zM102 213v-34q0 -24 7.5 -47.5t22.5 -42t37.5 -30.5t52.5 -12h31v18h-31q-25 0 -44 10t-31.5 26t-19 36.5t-6.5 41.5
v34h-19zM385 287l-261 165v190q0 74 28.5 107.5t77.5 33.5h19q57 0 87 -35t30 -103v-65h19v65q0 74 -35 115.5t-101 41.5h-19q-59 0 -92 -40t-33 -120v-182v-19l261 -164v-85q0 -29 -9 -52t-24 -40t-35.5 -26t-44.5 -9v-18q28 0 52 10.5t42 30t28 46t10 58.5v73v22z" />
    <glyph glyph-name="L_O" horiz-adv-x="688" 
d="M411 196q-39 0 -68.5 17.5t-50 45t-30.5 61.5t-10 67v276q0 40 13 75.5t37 61t57 40.5t73 15h32q41 0 73 -16t54 -42.5t33.5 -61.5t11.5 -72v-276q0 -35 -11 -69t-32 -60.5t-50.5 -43.5t-65.5 -18h-66zM516 387v276q0 29 -13.5 49.5t-42.5 22.5h-33q-16 0 -26.5 -6.5
t-17 -16.5t-9 -23t-2.5 -26v-276q0 -31 15 -51.5t46 -20.5h22q32 0 46.5 21.5t14.5 50.5zM52 0v850h120v-730h463v-120h-583z" />
    </font>
</defs>
</svg>
