<svg xmlns="http://www.w3.org/2000/svg" width="425" height="73.83999633789062" style=""><rect id="backgroundrect" width="100%" height="100%" x="0" y="0" fill="none" stroke="none" class="" style=""/><g class="currentLayer" style=""><title>Layer 1</title><path d="M38.8,0C52.66,0,64.54,5.64,72,15.24L59.59,26c-4.46-5.64-12.47-10-20.1-10C24.75,16,17.32,26.43,17.32,36.92s7.43,20.79,22.17,20.79c9.71,0,15.84-4.75,20.1-10.2L72,58.3A42.43,42.43,0,0,1,38.7,73.84C20.89,73.84,0,61.27,0,36.92S21,0,38.8,0Z" style="fill:#0376ff" id="svg_1"/><path d="M240.32,2.28V16.13H163V2.28ZM193.3,27H210V71.57H193.3Z" style="fill:#0376ff" id="svg_2"/><path d="M312.27,2.28v14H250.41V2.28Zm0,27.71V43.85H250.41V30Zm0,27.62v14H250.7v-14Z" style="fill:#0376ff" id="svg_3"/><path d="M387,24.05c-6.34-5.54-18.32-9-27.62-9-7.32,0-12.87,2.07-12.87,6.83,0,12.07,48.8,3,48.8,30.58,0,15.25-15.84,21.38-33.06,21.38-14.06,0-29.1-4.06-37.51-10.59L333,49.39c6.54,6,20.49,9.8,31,9.8,7.33,0,13.07-2,13.07-6.33,0-12.57-48.6-3.86-48.6-31.28C328.4,6.33,342.65.4,358.69.4c13.26,0,27.71,4,36.42,10.19Z" style="fill:#0376ff" id="svg_4"/><path d="M408.27,2.28H425V71.57H408.27Z" style="fill:#0376ff" id="svg_5"/><path d="M122.53,15.89c9.84.54,20.73,7.27,21.06,20.44h17.14C160.39,12.56,140.21.58,122.53,0Z" style="fill:#e00b00" id="svg_6"/><path d="M143.5,39.08c-1.17,12.68-12.5,18.83-22.25,18.83-10.4,0-22.47-6.83-22.47-21,0-13.49,11-20.41,21-21V0c-17.87.63-38,12.81-38,36.89,0,24.75,21.28,36.92,39.5,36.92,17.58,0,38.23-11.46,39.43-34.76Z" style="fill:#0376ff" id="svg_7"/><path d="M113.53,37c0,4.65,3,7.62,7.72,7.62s7.62-3,7.62-7.62-3-7.72-7.62-7.72S113.53,32.37,113.53,37Z" style="fill:#e00b00" id="svg_8"/><path d="M24.85,49.94H16.92L4.35,23.6H14.41l6.46,13.45L27.3,23.6H37.36l-11,23.27-5-8.87,4.6,9.57Zm-5.4-4h1.26L11.89,27.6h-1.2Zm5.89-9,.68,1.2L31,27.6H29.82Z" style="fill:#fff" id="svg_9"/><path d="M45,49.62H35.65v-26H45Zm-5.32-4H41v-18H39.65Z" style="fill:#fff" id="svg_10" class=""/><path d="M55,49.62H45.68v-26H55Zm-5.32-4H51v-18H49.68Z" style="fill:#fff" id="svg_11" class=""/><path d="M64.76735233515501,49.5303134199977 H55.44735233515502 v-26 H64.76735233515501 zm-5.32,-4 H60.76735233515501 v-18 H59.44735233515502 z" style="fill:#fff" class="" id="svg_15"/><path d="M57.537039429247386,25.60000112503767 H62.85703942924738 v22 H57.537039429247386 z" style="fill:#e00b00" class="" id="svg_16"/><path d="M18.18,47.94,7.52,25.6h5.63l10.57,22-.16.35Zm8-5.41-3.08-5.48L28.56,25.6h5.63Z" style="fill:#e00b00" id="svg_12"/><path d="M37.65,25.6H43v22H37.65Z" style="fill:#e00b00" id="svg_13"/><path d="M47.68,25.6H53v22H47.68Z" style="fill:#e00b00" id="svg_14" class=""/></g></svg>