<svg id="calendar" xmlns="http://www.w3.org/2000/svg" width="29.397" height="29.397" viewBox="0 0 29.397 29.397">
  <g id="Group_8" data-name="Group 8" transform="translate(0)">
    <g id="Group_7" data-name="Group 7">
      <circle id="Ellipse_16" data-name="Ellipse 16" cx="1" cy="1" r="1" transform="translate(20.473 11.397)" fill="#fff"/>
      <path id="Path_4" data-name="Path 4" d="M24.8,2.3H23.311V1.148a1.148,1.148,0,0,0-2.3,0V2.3H15.789V1.148a1.148,1.148,0,0,0-2.3,0V2.3H8.325V1.148a1.148,1.148,0,1,0-2.3,0V2.3H4.593A4.6,4.6,0,0,0,0,6.89V24.8A4.6,4.6,0,0,0,4.593,29.4h8.785a1.148,1.148,0,0,0,0-2.3H4.593a2.3,2.3,0,0,1-2.3-2.3V6.89a2.3,2.3,0,0,1,2.3-2.3H6.029V5.742a1.148,1.148,0,1,0,2.3,0V4.593h5.167V5.742a1.148,1.148,0,1,0,2.3,0V4.593h5.225V5.742a1.148,1.148,0,0,0,2.3,0V4.593H24.8a2.3,2.3,0,0,1,2.3,2.3v6.545a1.148,1.148,0,0,0,2.3,0V6.89A4.6,4.6,0,0,0,24.8,2.3Z" transform="translate(0)" fill="#fff"/>
      <path id="Path_5" data-name="Path 5" d="M276.947,270a6.947,6.947,0,1,0,6.947,6.947A6.955,6.955,0,0,0,276.947,270Zm0,11.6a4.651,4.651,0,1,1,4.651-4.651A4.656,4.656,0,0,1,276.947,281.6Z" transform="translate(-254.498 -254.498)" fill="#fff"/>
      <path id="Path_6" data-name="Path 6" d="M373.813,332.354H373.3v-1.206a1.148,1.148,0,0,0-2.3,0V333.5a1.148,1.148,0,0,0,1.148,1.148h1.665a1.148,1.148,0,1,0,0-2.3Z" transform="translate(-349.699 -311.053)" fill="#fff"/>
      <ellipse id="Ellipse_17" data-name="Ellipse 17" cx="0.5" cy="1" rx="0.5" ry="1" transform="translate(16.473 11.397)" fill="#fff"/>
      <ellipse id="Ellipse_18" data-name="Ellipse 18" cx="1" cy="0.5" rx="1" ry="0.5" transform="translate(11.473 16.397)" fill="#fff"/>
      <ellipse id="Ellipse_19" data-name="Ellipse 19" cx="1.5" cy="1" rx="1.5" ry="1" transform="translate(5.473 11.397)" fill="#fff"/>
      <ellipse id="Ellipse_20" data-name="Ellipse 20" cx="1.5" cy="0.5" rx="1.5" ry="0.5" transform="translate(5.473 16.397)" fill="#fff"/>
      <circle id="Ellipse_21" data-name="Ellipse 21" cx="1.5" cy="1.5" r="1.5" transform="translate(5.473 20.397)" fill="#fff"/>
      <ellipse id="Ellipse_22" data-name="Ellipse 22" cx="1" cy="1.5" rx="1" ry="1.5" transform="translate(11.473 20.397)" fill="#fff"/>
      <circle id="Ellipse_23" data-name="Ellipse 23" cx="1" cy="1" r="1" transform="translate(11.473 11.397)" fill="#fff"/>
    </g>
  </g>
</svg>
