<svg xmlns="http://www.w3.org/2000/svg" width="122.213" height="126.106" viewBox="0 0 122.213 126.106">
  <g id="Group_38" data-name="Group 38" transform="translate(-1415.893 -6909)">
    <g id="Group_36" data-name="Group 36" transform="translate(0 64)">
      <g id="Group_31" data-name="Group 31" transform="translate(0 1)">
        <circle id="Ellipse_107" data-name="Ellipse 107" cx="3" cy="3" r="3" transform="translate(1433 6844)" fill="#c5c5c5"/>
        <circle id="Ellipse_108" data-name="Ellipse 108" cx="3" cy="3" r="3" transform="translate(1433 6854)" fill="#c5c5c5"/>
        <circle id="Ellipse_109" data-name="Ellipse 109" cx="3" cy="3" r="3" transform="translate(1433 6864)" fill="#c5c5c5"/>
        <circle id="Ellipse_110" data-name="Ellipse 110" cx="3" cy="3" r="3" transform="translate(1433 6874)" fill="#c5c5c5"/>
        <circle id="Ellipse_111" data-name="Ellipse 111" cx="3" cy="3" r="3" transform="translate(1433 6884)" fill="#c5c5c5"/>
        <circle id="Ellipse_112" data-name="Ellipse 112" cx="3" cy="3" r="3" transform="translate(1433 6894)" fill="#c5c5c5"/>
        <circle id="Ellipse_113" data-name="Ellipse 113" cx="3" cy="3" r="3" transform="translate(1433 6894)" fill="#c5c5c5"/>
        <circle id="Ellipse_114" data-name="Ellipse 114" cx="3" cy="3" r="3" transform="translate(1433 6904)" fill="#c5c5c5"/>
      </g>
      <g id="Group_30" data-name="Group 30">
        <circle id="Ellipse_115" data-name="Ellipse 115" cx="2.5" cy="2.5" r="2.5" transform="translate(1448 6845)" fill="#c5c5c5"/>
        <circle id="Ellipse_116" data-name="Ellipse 116" cx="2.5" cy="2.5" r="2.5" transform="translate(1448 6855)" fill="#c5c5c5"/>
        <circle id="Ellipse_117" data-name="Ellipse 117" cx="2.5" cy="2.5" r="2.5" transform="translate(1448 6865)" fill="#c5c5c5"/>
        <circle id="Ellipse_118" data-name="Ellipse 118" cx="2.5" cy="2.5" r="2.5" transform="translate(1448 6875)" fill="#c5c5c5"/>
        <circle id="Ellipse_119" data-name="Ellipse 119" cx="2.5" cy="2.5" r="2.5" transform="translate(1448 6885)" fill="#c5c5c5"/>
        <circle id="Ellipse_120" data-name="Ellipse 120" cx="2.5" cy="2.5" r="2.5" transform="translate(1448 6895)" fill="#c5c5c5"/>
        <circle id="Ellipse_121" data-name="Ellipse 121" cx="2.5" cy="2.5" r="2.5" transform="translate(1448 6895)" fill="#c5c5c5"/>
        <circle id="Ellipse_122" data-name="Ellipse 122" cx="2.5" cy="2.5" r="2.5" transform="translate(1448 6905)" fill="#c5c5c5"/>
      </g>
      <g id="Group_29" data-name="Group 29" transform="translate(0 1)">
        <circle id="Ellipse_123" data-name="Ellipse 123" cx="2" cy="2" r="2" transform="translate(1462 6845)" fill="#c5c5c5"/>
        <circle id="Ellipse_124" data-name="Ellipse 124" cx="2" cy="2" r="2" transform="translate(1462 6855)" fill="#c5c5c5"/>
        <circle id="Ellipse_125" data-name="Ellipse 125" cx="2" cy="2" r="2" transform="translate(1462 6865)" fill="#c5c5c5"/>
        <circle id="Ellipse_126" data-name="Ellipse 126" cx="2" cy="2" r="2" transform="translate(1462 6875)" fill="#c5c5c5"/>
        <circle id="Ellipse_127" data-name="Ellipse 127" cx="2" cy="2" r="2" transform="translate(1462 6885)" fill="#c5c5c5"/>
        <circle id="Ellipse_128" data-name="Ellipse 128" cx="2" cy="2" r="2" transform="translate(1462 6895)" fill="#c5c5c5"/>
        <circle id="Ellipse_129" data-name="Ellipse 129" cx="2" cy="2" r="2" transform="translate(1462 6895)" fill="#c5c5c5"/>
        <circle id="Ellipse_130" data-name="Ellipse 130" cx="2" cy="2" r="2" transform="translate(1462 6905)" fill="#c5c5c5"/>
      </g>
      <g id="Group_28" data-name="Group 28" transform="translate(0 -2)">
        <circle id="Ellipse_131" data-name="Ellipse 131" cx="1.5" cy="1.5" r="1.5" transform="translate(1476 6848)" fill="#c5c5c5"/>
        <circle id="Ellipse_132" data-name="Ellipse 132" cx="1.5" cy="1.5" r="1.5" transform="translate(1476 6858)" fill="#c5c5c5"/>
        <circle id="Ellipse_133" data-name="Ellipse 133" cx="1.5" cy="1.5" r="1.5" transform="translate(1476 6868)" fill="#c5c5c5"/>
        <circle id="Ellipse_134" data-name="Ellipse 134" cx="1.5" cy="1.5" r="1.5" transform="translate(1476 6878)" fill="#c5c5c5"/>
        <circle id="Ellipse_135" data-name="Ellipse 135" cx="1.5" cy="1.5" r="1.5" transform="translate(1476 6888)" fill="#c5c5c5"/>
        <circle id="Ellipse_136" data-name="Ellipse 136" cx="1.5" cy="1.5" r="1.5" transform="translate(1476 6898)" fill="#c5c5c5"/>
        <circle id="Ellipse_137" data-name="Ellipse 137" cx="1.5" cy="1.5" r="1.5" transform="translate(1476 6898)" fill="#c5c5c5"/>
        <circle id="Ellipse_138" data-name="Ellipse 138" cx="1.5" cy="1.5" r="1.5" transform="translate(1476 6908)" fill="#c5c5c5"/>
      </g>
      <g id="Group_27" data-name="Group 27" transform="translate(0 -1)">
        <circle id="Ellipse_139" data-name="Ellipse 139" cx="1" cy="1" r="1" transform="translate(1492 6848)" fill="#c5c5c5"/>
        <circle id="Ellipse_140" data-name="Ellipse 140" cx="1" cy="1" r="1" transform="translate(1492 6858)" fill="#c5c5c5"/>
        <circle id="Ellipse_141" data-name="Ellipse 141" cx="1" cy="1" r="1" transform="translate(1492 6868)" fill="#c5c5c5"/>
        <circle id="Ellipse_142" data-name="Ellipse 142" cx="1" cy="1" r="1" transform="translate(1492 6878)" fill="#c5c5c5"/>
        <circle id="Ellipse_143" data-name="Ellipse 143" cx="1" cy="1" r="1" transform="translate(1492 6888)" fill="#c5c5c5"/>
        <circle id="Ellipse_144" data-name="Ellipse 144" cx="1" cy="1" r="1" transform="translate(1492 6898)" fill="#c5c5c5"/>
        <circle id="Ellipse_145" data-name="Ellipse 145" cx="1" cy="1" r="1" transform="translate(1492 6898)" fill="#c5c5c5"/>
        <circle id="Ellipse_146" data-name="Ellipse 146" cx="1" cy="1" r="1" transform="translate(1492 6908)" fill="#c5c5c5"/>
      </g>
      <g id="Group_26" data-name="Group 26" transform="translate(0 -1)">
        <circle id="Ellipse_147" data-name="Ellipse 147" cx="1" cy="1" r="1" transform="translate(1506 6848)" fill="#c5c5c5"/>
        <circle id="Ellipse_148" data-name="Ellipse 148" cx="1" cy="1" r="1" transform="translate(1506 6858)" fill="#c5c5c5"/>
        <circle id="Ellipse_149" data-name="Ellipse 149" cx="1" cy="1" r="1" transform="translate(1506 6868)" fill="#c5c5c5"/>
        <circle id="Ellipse_150" data-name="Ellipse 150" cx="1" cy="1" r="1" transform="translate(1506 6878)" fill="#c5c5c5"/>
        <circle id="Ellipse_151" data-name="Ellipse 151" cx="1" cy="1" r="1" transform="translate(1506 6888)" fill="#c5c5c5"/>
        <circle id="Ellipse_152" data-name="Ellipse 152" cx="1" cy="1" r="1" transform="translate(1506 6898)" fill="#c5c5c5"/>
        <circle id="Ellipse_153" data-name="Ellipse 153" cx="1" cy="1" r="1" transform="translate(1506 6898)" fill="#c5c5c5"/>
        <circle id="Ellipse_154" data-name="Ellipse 154" cx="1" cy="1" r="1" transform="translate(1506 6908)" fill="#c5c5c5"/>
      </g>
      <g id="Group_25" data-name="Group 25" transform="translate(0 -1)">
        <circle id="Ellipse_155" data-name="Ellipse 155" cx="1" cy="1" r="1" transform="translate(1519 6848)" fill="#c5c5c5"/>
        <circle id="Ellipse_156" data-name="Ellipse 156" cx="1" cy="1" r="1" transform="translate(1519 6858)" fill="#c5c5c5"/>
        <circle id="Ellipse_157" data-name="Ellipse 157" cx="1" cy="1" r="1" transform="translate(1519 6868)" fill="#c5c5c5"/>
        <circle id="Ellipse_158" data-name="Ellipse 158" cx="1" cy="1" r="1" transform="translate(1519 6878)" fill="#c5c5c5"/>
        <circle id="Ellipse_159" data-name="Ellipse 159" cx="1" cy="1" r="1" transform="translate(1519 6888)" fill="#c5c5c5"/>
        <circle id="Ellipse_160" data-name="Ellipse 160" cx="1" cy="1" r="1" transform="translate(1519 6898)" fill="#c5c5c5"/>
        <circle id="Ellipse_161" data-name="Ellipse 161" cx="1" cy="1" r="1" transform="translate(1519 6898)" fill="#c5c5c5"/>
        <circle id="Ellipse_162" data-name="Ellipse 162" cx="1" cy="1" r="1" transform="translate(1519 6908)" fill="#c5c5c5"/>
      </g>
    </g>
    <g id="Group_37" data-name="Group 37" transform="translate(10 -42)">
      <g id="Group_34" data-name="Group 34" transform="translate(-28 44)">
        <g id="Group_32" data-name="Group 32">
          <line id="Line_24" data-name="Line 24" x2="12" y2="12" transform="translate(1444.5 7010.5)" fill="none" stroke="#fef133" stroke-linecap="round" stroke-width="15"/>
          <line id="Line_25" data-name="Line 25" x1="12" y2="12" transform="translate(1457.5 7010.5)" fill="none" stroke="#fef133" stroke-linecap="round" stroke-width="15"/>
        </g>
        <g id="Group_33" data-name="Group 33" transform="translate(25)">
          <line id="Line_24-2" data-name="Line 24" x2="12" y2="12" transform="translate(1444.5 7010.5)" fill="none" stroke="#fef133" stroke-linecap="round" stroke-width="15"/>
          <line id="Line_25-2" data-name="Line 25" x1="12" y2="12" transform="translate(1457.5 7010.5)" fill="none" stroke="#fef133" stroke-linecap="round" stroke-width="15"/>
        </g>
      </g>
      <g id="Group_35" data-name="Group 35" transform="translate(23 44)">
        <g id="Group_32-2" data-name="Group 32">
          <line id="Line_24-3" data-name="Line 24" x2="12" y2="12" transform="translate(1444.5 7010.5)" fill="none" stroke="#fef133" stroke-linecap="round" stroke-width="15"/>
          <line id="Line_25-3" data-name="Line 25" x1="12" y2="12" transform="translate(1457.5 7010.5)" fill="none" stroke="#fef133" stroke-linecap="round" stroke-width="15"/>
        </g>
        <g id="Group_33-2" data-name="Group 33" transform="translate(25)">
          <line id="Line_24-4" data-name="Line 24" x2="12" y2="12" transform="translate(1444.5 7010.5)" fill="none" stroke="#fef133" stroke-linecap="round" stroke-width="15"/>
          <line id="Line_25-4" data-name="Line 25" x1="12" y2="12" transform="translate(1457.5 7010.5)" fill="none" stroke="#fef133" stroke-linecap="round" stroke-width="15"/>
        </g>
      </g>
    </g>
  </g>
</svg>
